<?xml version="1.0" encoding="UTF-8" standalone="no"?>
<!-- Created with Inkscape (http://www.inkscape.org/) -->

<svg
   version="1.1"
   id="svg1"
   width="937.97943"
   height="938.08032"
   viewBox="0 0 937.97943 938.08032"
   sodipodi:docname="s-l1200.jpg"
   inkscape:version="0.0"
   inkscape:export-filename="..\To use\One ring black.svg"
   inkscape:export-xdpi="96"
   inkscape:export-ydpi="96"
   xmlns:inkscape="http://www.inkscape.org/namespaces/inkscape"
   xmlns:sodipodi="http://sodipodi.sourceforge.net/DTD/sodipodi-0.dtd"
   xmlns="http://www.w3.org/2000/svg"
   xmlns:svg="http://www.w3.org/2000/svg">
  <defs
     id="defs1" />
  <sodipodi:namedview
     id="namedview1"
     pagecolor="#ffffff"
     bordercolor="#999999"
     borderopacity="1"
     inkscape:showpageshadow="2"
     inkscape:pageopacity="0"
     inkscape:pagecheckerboard="0"
     inkscape:deskcolor="#d1d1d1"
     showgrid="false"
     inkscape:zoom="0.62284322"
     inkscape:cx="309.86931"
     inkscape:cy="618.93585"
     inkscape:window-width="2400"
     inkscape:window-height="1271"
     inkscape:window-x="-9"
     inkscape:window-y="-9"
     inkscape:window-maximized="1"
     inkscape:current-layer="g1" />
  <g
     inkscape:groupmode="layer"
     inkscape:label="Image"
     id="g1"
     transform="translate(-131.01031,-130.95982)">
    <path
       style="fill:#ff9e00;fill-opacity:1"
       d="m 630.05923,1067.2508 -3.45105,-1.702 -1.91663,-3.2939 -1.91662,-3.2939 1.21833,-4.3514 1.21834,-4.3515 3.64934,-3.4876 3.64934,-3.4877 3.82498,-1.2193 3.82499,-1.2193 4.55057,0.6824 4.55057,0.6824 2.4909,2.4909 2.4909,2.4909 -0.63553,3.9744 -0.63553,3.9744 2.1061,-1.1272 2.10609,-1.1271 5.98385,-6.0775 5.98386,-6.0775 3.78459,-5.5907 3.7846,-5.5908 1.57703,-3.0698 1.57703,-3.0698 -16.6825,0.4294 -16.6825,0.4293 -5.5,1.9843 -5.5,1.9843 -4.5,1.4699 -4.5,1.4699 -6.76448,0.076 -6.76448,0.076 -5.52195,7.8804 -5.52194,7.8804 -6.40439,6.789 -6.40439,6.789 -5.30918,2.8986 -5.30919,2.8985 -5,-0.019 -5,-0.019 -3.23689,-1.707 -3.23688,-1.707 -3.62679,1.5154 -3.62679,1.5153 -5.86373,0.9444 -5.86373,0.9443 -3.60416,-0.5849 -3.60416,-0.5849 -3.41844,-3.224 -3.41843,-3.224 v -4.164 -4.164 l 1.37577,-3.2927 1.37576,-3.2927 3.6805,-3.0338 3.6805,-3.0337 3.80975,-1.1415 3.80976,-1.1414 h 2.17382 2.17382 l 3.93955,2.0098 3.93956,2.0098 1.5206,2.9406 1.52061,2.9405 v 1.4101 1.4101 l -2.47065,3.6407 -2.47065,3.6407 3.72065,-1.5537 3.72065,-1.5536 4.5,-2.6042 4.5,-2.6041 9.5,-9.4692 9.5,-9.4692 -2.5,-0.96 -2.5,-0.9599 -9.03468,0.3726 -9.03467,0.3726 -4.24708,2.2137 -4.24708,2.2137 -3.21824,0.2495 -3.21825,0.2483 v -1.8613 -1.8612 l 6.21615,-3.7587 6.21615,-3.7586 6.48937,-1.6301 6.48936,-1.6301 h 3.47345 3.47344 l 4.46752,-7.25 4.46753,-7.25 10.4863,-18.50003 10.4863,-18.5 9.9207,-16.5 9.9207,-16.5 6.44652,-10.31856 6.44651,-10.31855 6.31673,-8.43145 6.31673,-8.43144 h 1.93327 1.93327 v 1.15143 1.15142 l -10.36474,16.59858 -10.36474,16.59857 -9.47633,16.5 -9.47634,16.5 -8.77705,16.2985 -8.77706,16.2986 0.42025,0.4202 0.42026,0.4203 5.94787,-2.4451 5.94788,-2.445 3.82692,-0.024 3.82693,-0.024 3.03886,3.0388 3.03887,3.03893 3.13421,-2.56413 3.13421,-2.564 4.73203,-3.2248 4.73204,-3.2248 0.0277,-3 0.0277,-3 2.35806,-5 2.35806,-5 3.64915,-3.6003 3.64915,-3.6004 4.73302,-2.5488 4.73302,-2.54876 5.79515,-1.18116 5.79514,-1.18115 4.20486,0.70011 4.20485,0.7001 3.5,1.79306 3.5,1.7931 2.23932,2.1161 2.23932,2.1161 1.61494,3.1229 1.61494,3.123 -0.3739,6.617 -0.37389,6.6171 -2.74049,5.6013 -2.74048,5.6014 -6.24962,6.62973 -6.24962,6.6296 h 0.79298 0.79299 l 4.92984,-2.4981 4.92984,-2.4982 3.53691,-3.1054 3.53699,-3.10563 v -2.3589 -2.3589 l 2.008,-5.3668 2.008,-5.3669 3.45898,-4.041 3.45899,-4.0411 3.57989,-1.6988 3.57989,-1.6987 2.96144,0.6504 2.96144,0.6505 0.99169,1.8529 0.99168,1.853 v 1.9309 1.9309 l -2.07258,2.6348 -2.07258,2.6349 h -2.8684 -2.86841 l -0.61803,-1 -0.61803,-1 h -0.99201 -0.99201 l -1.50008,3.5902 -1.50008,3.5902 0.3011,4.6598 0.30111,4.65983 2.22236,0.3159 2.22236,0.316 5.03636,-4.71103 5.03636,-4.7109 2.95797,-6.105 2.95796,-6.105 1.50353,-6.5 1.50352,-6.5 2.59615,-12.5 2.59616,-12.5 6.86534,-28 6.86534,-28 3.04954,-14 3.04953,-14 1.84633,-9.36375 1.84634,-9.36376 1.46806,-0.82156 1.46806,-0.82157 1.25294,0.77435 1.25294,0.77436 -1.49261,6.91097 -1.49261,6.91096 -4.63184,24 -4.63183,24 -3.98231,17.5 -3.9823,17.5 -2.48184,11.79318 -2.48184,11.79319 -1.94847,15.13503 -1.94847,15.135 0.47507,0.475 0.47506,0.4751 4.39549,-4.72 4.39548,-4.72 1.94532,-5.9333 1.94532,-5.9332 h -0.63122 -0.63122 l -3.39233,3.5 -3.39233,3.5 h -1.30384 -1.30383 v -1.5398 -1.5399 l 1.91527,-3.7101 1.91526,-3.7102 3.83474,-3.6517 3.83473,-3.65168 6.20701,-3.97032 6.20701,-3.97032 9.98667,-4.21408 9.98667,-4.21407 4.55632,-4.87107 4.55632,-4.87108 0.0509,-14.79284 0.0509,-14.79284 0.88753,-11 0.88754,-11 1.20686,-19.5 1.20687,-19.5 1.75382,-1.87136 1.75382,-1.87135 1.19009,0.73551 1.19009,0.73552 -0.55834,6.13584 -0.55833,6.13584 -1.17092,28.5 -1.17091,28.5 0.61169,17.5 0.61169,17.5 1.07907,6.42945 1.07908,6.42946 0.82112,1.46727 0.82112,1.46722 2.73521,-4.66723 2.7352,-4.66727 -0.007,-2.22945 -0.007,-2.22945 -0.72599,-5.61325 -0.72599,-5.61324 1.65966,-4.88676 1.65966,-4.88675 1.71613,-2.03076 1.71613,-2.03075 2.47251,-1.71925 2.4725,-1.71924 h 2.62251 2.6225 l 1.65499,1.82874 1.65499,1.82874 -0.0318,3.42126 -0.0318,3.42126 -1.22203,1.60448 -1.22204,1.60449 -2.20839,0.70091 -2.20838,0.70092 -2.18471,-1.16922 -2.18471,-1.16922 0.53277,3.97211 0.53277,3.97211 1.72811,3.64171 1.7281,3.64171 h 1.84391 1.8439 l 2.47623,-4.25 2.47623,-4.25 1.2304,-4.93171 1.23039,-4.9317 -1.23687,-7.361 -1.23686,-7.361 2.94193,-5.20729 2.94193,-5.2073 h 1.38047 1.38046 l 0.59472,10 0.59472,10 1.19382,4.25 1.19383,4.25 h 0.84531 0.84531 l 2.24047,-5.52015 2.24046,-5.52014 -1.24652,-4.45213 -1.24651,-4.45212 0.4304,-5.9503 0.43041,-5.9503 2.96566,-4.79685 2.96567,-4.79685 3.19465,-0.91621 3.19465,-0.91622 2.57701,1.68853 2.57701,1.68852 1.13334,2.4874 1.13333,2.4874 -0.94547,2.68846 -0.94548,2.68845 -2.38479,1.18895 -2.38478,1.18894 -2.34861,-0.89294 -2.34832,-0.89294 0.006,1.72525 0.006,1.72525 1.03211,3.71626 1.03212,3.71626 1.53374,1.53374 1.53374,1.53374 h 1.97632 1.97632 l 2.32461,-2.5083 2.32462,-2.5083 1.26599,-4.52168 1.26599,-4.52168 -1.78541,-3.95934 -1.78542,-3.95934 v -6.80007 -6.80008 l 1.20812,-3.66062 1.20811,-3.66062 3.47374,-3.04999 3.47289,-3.04998 h 2.46521 2.4652 l 2,2 2,2 v 3.87756 3.87755 l -1.4783,1.22688 -1.4783,1.22688 -2.2717,0.0643 -2.2717,0.0643 -1.47626,-0.41872 -1.47626,-0.41872 -0.33809,2.21031 -0.33809,2.21031 1.99162,4.50239 1.99161,4.50238 2.74411,0.68872 2.74412,0.68873 2.24453,-2.60942 2.24453,-2.60942 0.65115,-6.292 0.65115,-6.292 -5.96625,-19 -5.96626,-19 -4.53477,-16.5 -4.53478,-16.5 -7.49788,-30.94309 -7.49787,-30.94308 0.96703,-1.80692 0.96703,-1.80694 h 0.98625 0.98626 l 0.91069,2.25 0.91068,2.25 10.13898,37.5 10.13898,37.5 2.4988,8 2.49881,8 3.34711,10 3.34711,10 3.14193,8.5 3.14194,8.5 1.60339,2.46258 1.60339,2.46259 0.76737,-1.96259 0.76737,-1.96258 0.0703,-5.1862 0.0703,-5.18621 -8.43341,-25.31379 -8.43342,-25.3138 -10.15812,-37.5 -10.15813,-37.5 -1.4437,-5.5 -1.4437,-5.5 -2.01114,-7.22908 -2.01114,-7.22908 1.144,-2.13758 1.144,-2.13759 1.30406,1.36667 1.30405,1.36666 8.67797,30 8.67797,30 4.353,15 4.35301,15 3.18131,9.5 3.18131,9.5 2.72954,7 2.72954,7 0.73544,2 0.73545,2 1.38349,-4 1.38349,-4 2.14835,-1.75 2.14835,-1.75 h 2.88921 2.88922 l 0.006,-3.75 0.006,-3.75 1.0887,-3.9212 1.0887,-3.92119 2.8288,-2.82881 2.8288,-2.8288 h 3.24837 3.24837 l -4.57143,-3.02799 -4.57143,-3.02799 -3.98211,-5.22201 -3.98211,-5.22201 -1.50947,-3 -1.50948,-3 -2.54709,-10.5 -2.5471,-10.5 -1.60768,-13.50589 -1.60769,-13.5059 -0.20365,-9.4941 -0.2045,-9.49411 h 1.5 1.5 l 1.80146,11.5 1.80146,11.5 2.98522,15.31052 2.98522,15.31052 1.99667,5.33658 1.99666,5.33657 4.08116,4.63644 4.08115,4.63643 2.82216,1.45939 2.82215,1.4594 1.63995,-0.62931 1.63995,-0.62931 0.92339,-2.42871 0.9234,-2.42872 v -3.82412 -3.82411 l 1.92902,-2.36079 1.92901,-2.36078 0.90697,1 0.90697,1 1.14306,6.46366 1.14306,6.46366 2.77096,5.48571 2.77095,5.4857 1.72248,1.02816 1.72247,1.02816 1.0726,-1.0726 1.07259,-1.07259 1.10861,-6.69028 1.10862,-6.69027 -3.05312,-2.98499 -3.05311,-2.98498 -2.26798,-4.72967 -2.26798,-4.72967 -0.44118,-5.58966 -0.44119,-5.58967 1.56144,-3.01948 1.56143,-3.01948 3.11886,-1.29188 3.11886,-1.29187 3.32993,1.58793 3.32992,1.58793 1.15977,3.51412 1.15976,3.51412 -1.09025,2.03716 -1.09026,2.03717 -2.37799,0.59683 -2.378,0.59684 -2.09314,-1.12021 -2.09314,-1.12022 v 1.45846 1.45846 l 2.43731,2.89658 2.43732,2.89659 4.09585,1.84697 4.09586,1.84697 1.07458,-1.07458 1.07458,-1.07458 0.52482,-6.53819 0.52482,-6.53819 -4.09922,-4.65697 -4.09923,-4.65696 -2.03334,-5.43461 -2.03335,-5.43461 v -6.00794 -6.00794 l 2.52788,-2.52788 2.52788,-2.52787 2.92036,0.64142 2.92037,0.64142 -1.94825,-5.54311 -1.94824,-5.5431 v -2.4432 -2.4432 l 0.60699,-1.58178 0.60699,-1.58179 1.64301,0.041 1.64301,0.041 2.35169,5.01177 2.35169,5.01176 5.64831,7.57884 5.64831,7.57885 0.33166,-2.78954 0.33166,-2.78953 -0.61154,-3.25983 -0.61155,-3.25983 -20.11423,-25.33226 -20.11422,-25.33223 -9.10589,-13.42943 -9.10589,-13.42943 -16.25,-21.74926 -16.25,-21.74926 v -2.07131 -2.07131 h 1.47758 1.47759 l 10.27241,12.60688 10.27242,12.60687 11.22707,15.14313 11.22707,15.14312 16.27293,19.772 16.27293,19.772 0.53796,-4.772 0.53796,-4.772 1.13461,-2.03958 1.13461,-2.03958 2.51735,-1.34725 2.51735,-1.34724 4.65142,0.52428 4.65143,0.52429 4.0997,2.96983 4.0998,2.96983 3.0589,5.39271 3.0589,5.39271 v 7.17307 7.17308 l -2.0989,2.82692 -2.0988,2.82693 -3.0355,0.30473 -3.0355,0.30474 -2.1722,-2.76145 -2.17214,-2.76146 0.63694,-2.53768 0.6369,-2.53769 1.042,-1.2556 1.0421,-1.25559 h 2.3775 2.3776 v -2.25 -2.25 l -1.9427,-3.18618 -1.9428,-3.18618 -2.0958,-1.12166 -2.09586,-1.12166 -3.70767,0.30784 -3.71516,0.30784 0.0848,5 0.0847,5 1.18787,4.19089 1.18787,4.19088 6.74965,8.57053 6.7496,8.57053 5.3195,8.44609 5.3196,8.44609 3.4086,7.88406 3.4086,7.88407 1.9996,7.81839 1.9996,7.8184 v 8.87987 8.87988 l -2.0203,3.96016 -2.0203,3.96016 h -0.8573 -0.8572 l -1.142,-1.37605 -1.1421,-1.37605 1.5003,-5.75977 1.5002,-5.75977 -1.5496,-7.50206 -1.5496,-7.50206 -1.9157,-4.86034 -1.9158,-4.86034 -3.1487,-6.23746 -3.1486,-6.23747 -4.1167,-6.51431 -4.1166,-6.51432 -0.5941,6.20975 -0.5942,6.20974 -1.2783,1.54026 -1.27828,1.54025 h -1.63476 -1.63476 l 0.32625,4.25 0.32624,4.25 -1.31904,4 -1.31904,4 -3.11875,0.91987 -3.11875,0.91986 -0.53507,7.80648 -0.53507,7.80647 -2.18555,3.53631 -2.18556,3.53631 -1.84489,0.98735 -1.84488,0.98735 h -2.419 -2.41901 l -0.64202,7.59513 -0.64203,7.59514 -1.90369,4.30361 -1.90369,4.3036 -3.63552,1.31463 -3.63552,1.31462 -0.55278,2.53663 -0.55279,2.53664 -1.50458,5.4699 -1.50458,5.46991 -2.03746,4.03009 -2.03745,4.0301 -5.61214,8 -5.61213,8 -5.66951,6.5 -5.66951,6.5 -3.60588,4 -3.60589,4 -2.23315,4.79522 -2.23315,4.79523 -1.64572,-0.42434 -1.64572,-0.42433 -1.26439,2.36254 -1.26439,2.36254 -1.88788,0.59919 -1.88788,0.59919 -1.47617,-1.22512 -1.47618,-1.22512 -0.31408,0.3925 -0.31408,0.3925 -2.41175,6.91027 -2.41176,6.91027 -2.82038,2.08753 -2.82038,2.08752 -4.32166,-0.16725 -4.32166,-0.16726 -2.15913,5.64215 -2.15913,5.64216 -2.58065,3.38341 -2.58065,3.38341 -3.41658,1.42754 -3.41657,1.42753 -3.6715,-1.01375 -3.67149,-1.01375 -0.70859,0.73011 -0.70859,0.73011 -2.07152,5.28702 -2.07152,5.28702 v 4.73921 4.73922 l -1.0092,8.47376 -1.00919,8.47377 -1.59805,7 -1.59804,7 -3.99282,8.3977 -3.99282,8.3977 -4.68909,4.68903 -4.68909,4.6891 -4.71064,1.799 -4.71064,1.7991 -3.7394,-1.4233 -3.7394,-1.4232 -2.24436,-3.9626 -2.24436,-3.96253 -0.0165,-4.2821 -0.0164,-4.2821 1.36403,-3.2646 1.36402,-3.2646 3.16703,-2.6649 3.16703,-2.6648 3.71894,-1.0329 3.71895,-1.0329 1.67327,-0.01 1.67328,-0.01 3.07672,2.5889 3.07673,2.5889 v 2.4111 2.412 h 0.86344 0.86343 l 2.56136,-5.75 2.56136,-5.75 1.50113,-6 1.50112,-6 0.66544,-7.5 0.66544,-7.5 -2.9765,-2.19502 -2.9765,-2.19502 -1.66744,4.36613 -1.66743,4.36612 -4.42508,4.07889 -4.42508,4.0789 h -2.79984 -2.79984 l -2.12585,-1.48901 -2.12585,-1.489 -4.71453,7.56411 -4.71453,7.5642 -2.51565,1.1462 -2.51564,1.1462 -2.86648,-3.4336 -2.86648,-3.4336 v 1.2928 1.2928 l -3.67942,5.5432 -3.67941,5.5433 -3.07059,1.9319 -3.07058,1.9318 -4.69139,-0.4032 -4.69138,-0.4033 -4.30862,4.4618 -4.30861,4.4618 -3.21788,1.3858 -3.21788,1.3858 h -1.4554 -1.45539 l -3.07073,-2.5839 -3.07073,-2.5838 -2.74436,3.3338 -2.74437,3.3339 -2.99383,2.86813 -2.99384,2.8681 -2.0178,0.7638 -2.01779,0.7637 -1.75,-0.917 -1.75,-0.9171 v -1.4648 -1.4648 h -0.65338 -0.65337 l -5.33604,5.0466 -5.33604,5.0466 -3.47847,1.4534 -3.47846,1.4534 h -3.07987 -3.07987 l -2.3694,-2.5566 -2.36941,-2.5567 -4.67487,3.5684 -4.67486,3.5684 -4.42529,2.5934 -4.42529,2.5934 -4.15563,7.1449 -4.15563,7.1448 -4.01171,5.5 -4.01172,5.5 -5.01254,5.8043 -5.01254,5.8043 -6.55281,4.3057 -6.5528,4.3057 -4.92814,1.64 -4.92814,1.64 -3.07186,-0.048 -3.07186,-0.048 z m -47.45345,-12.2482 4.22695,-2.0463 5.12542,-5.0452 5.12541,-5.0452 3.96336,-5.2494 3.96336,-5.2494 v -1.1592 -1.1591 h -2.07703 -2.07703 l -12.92297,13.193 -12.92297,13.1931 v 0.3069 0.307 h 1.68428 1.68427 z m 37.06429,-38.313 3.34021,-4.8592 v -2.3194 -2.3193 l -1.57143,-1.5715 -1.57143,-1.5714 -2.67857,0.01 -2.67857,0.01 -3.63069,2.2449 -3.63068,2.2449 -3.41646,3.0413 -3.41646,3.0414 -1.7298,2.4586 -1.7298,2.4587 7.27695,1.1411 7.27694,1.1412 2.40979,-0.1412 2.4098,-0.1411 z m 25.23172,0.8459 7.34712,-3.7443 10.19852,-0.7379 10.19852,-0.7378 3.43217,-1.6364 3.43216,-1.6364 4.93622,-3.7469 4.93623,-3.747 3.26436,-4.55093 3.26437,-4.5509 1.20574,-4.5082 1.20575,-4.5081 -0.71528,-2.8499 -0.71528,-2.8499 -3.22538,-3.2254 -3.22539,-3.2254 -5.71579,-1.1866 -5.71579,-1.1866 -5.72477,1.6643 -5.72477,1.6642 -4.27511,4.2751 -4.27511,4.2751 v 1.4584 1.4584 l 2.89283,-0.4246 2.89284,-0.4245 3.73019,1.77 3.73019,1.7701 1.3904,3.3277 1.39039,3.3277 -1.40779,3.3693 -1.40778,3.3693 -2.32814,1.63073 -2.32814,1.6307 h -2.82716 -2.82715 l -2.80184,-1.4489 -2.80184,-1.4489 -1.67155,-2.55113 -1.67156,-2.5511 h -0.86206 -0.86207 l -5.37262,4.423 -5.37262,4.42313 -7.24226,8.5053 -7.24226,8.5053 v 0.7105 0.7106 l 5.77219,-0.5234 5.77219,-0.5234 z m 128.70849,-36.88673 3.4,-3.4 0.0119,-2.85 0.0119,-2.85 1.4513,-5.4535 1.4513,-5.4535 -0.21456,-0.2146 -0.21455,-0.21451 -5.1352,2.44061 -5.13519,2.4407 -2.11342,4.9128 -2.11348,4.9128 v 2.3421 2.3421 l 1.5567,2.2225 1.55671,2.2225 h 1.04329 1.0433 z m 20.59072,-10.35 2.56491,-2.75 1.1776,-2.2878 1.1776,-2.2878 1.44458,-7.55017 1.44459,-7.55017 v -1.01237 -1.01238 l -5.58059,5.10035 -5.58058,5.10034 h -0.82542 -0.82541 l -1.594,4.6781 -1.594,4.6782 v 2.6218 2.6219 l 1.2,1.2 1.2,1.2 h 1.61291 1.61291 z M 931.01028,853.04229 v -1.74927 l -1.42201,-3.37213 -1.42201,-3.37212 -2.11695,-2.25 -2.11694,-2.25 h -0.93537 -0.93536 l -1.6438,3.17876 -1.6438,3.17876 0.55219,4.57124 0.55219,4.57124 1.68267,3.99728 1.68267,3.99728 3.88326,-4.37589 3.88326,-4.37589 z m 10.45419,-12.63732 3.54581,-4.6438 -0.002,-3.6062 -0.002,-3.6062 -1.74844,-3.48609 -1.74845,-3.48609 -2.5,-1.2584 -2.5,-1.25839 -1.61282,1.93585 -1.61281,1.93586 -0.63417,3.96585 -0.63416,3.96585 2.48721,5.34278 2.48721,5.34278 0.01,1.75 0.01,1.75 h 0.45419 0.4542 z m 11.9344,-18.14076 1.43995,-2.78455 0.64769,-3.46545 0.6477,-3.46544 -2.59798,-5.66853 -2.59797,-5.66854 -2.41854,2.41854 -2.41853,2.41853 h -2.12238 -2.12238 l 2.9741,2.97409 2.97409,2.9741 1.60283,4.70404 1.60283,4.70405 v 1.82186 1.82186 h 0.47432 0.47432 z m 34.6428,-73.27409 1.10176,-2.05865 -0.68734,-3.19135 -0.68733,-3.19135 -1.7007,-3.34696 -1.7007,-3.34696 -1.76741,2.69742 -1.76742,2.69741 -2.91112,-0.42726 -2.91113,-0.42726 v 1.37646 1.37647 l 1.472,2.84654 1.472,2.84654 2.778,2.07212 2.778,2.07212 1.71482,0.0317 1.71481,0.0317 z m -274.83139,297.85868 -1.2,-1.2 v -2.1613 -2.1614 l -2.50575,0.479 -2.50574,0.4791 -1.49426,-1.2402 -1.49425,-1.2401 v -1.2829 -1.283 l 3.48161,-4.1672 3.48161,-4.1672 1.171,-3.9085 1.171,-3.9084 1.89538,-0.6016 1.89538,-0.6015 1.20201,0.9576 1.20201,0.9577 2.30032,-0.1932 2.30031,-0.1932 1.93499,-3.1819 1.93498,-3.1818 h 1.95568 1.95569 l 0.63011,1.0196 0.63012,1.0195 -1.20559,3.653 -1.20559,3.653 1.75849,3.2653 1.7585,3.2653 -0.58687,2.3122 -0.58687,2.3121 -2.09968,1.2975 -2.09969,1.2976 -1.79445,-0.5696 -1.79446,-0.5695 -1.07531,-2.228 -1.07532,-2.228 -0.0733,1.5 -0.0733,1.5 -1.0767,3.8777 -1.07669,3.8778 -2.37228,2.3722 -2.37227,2.3723 h -0.84537 -0.84545 z m -261.26739,-7.3812 -1.31228,-1.5812 1.25912,-2.0162 1.25913,-2.0162 -0.31929,-0.2671 -0.31929,-0.2672 -2.25,-1.1706 -2.25,-1.1707 v -1.8934 -1.8933 l 1.545,-1.545 1.545,-1.545 4.205,-1.1187 4.205,-1.1186 3.18328,-2.4078 3.18328,-2.4078 h 1.01001 1.01002 l 1.30671,1.75 1.3067,1.75 1.67817,1.3128 1.67816,1.3129 3.12181,-1.6144 3.12182,-1.6144 1.95002,0.619 1.95002,0.6189 v 1.3557 1.3557 l -3,3 -3,3 v 3.4544 3.4545 l -1.25559,1.0421 -1.2556,1.042 -2.60065,0.6527 -2.60065,0.6528 -1.64465,-1.6447 -1.64466,-1.6447 0.57431,-2.6776 0.5743,-2.6777 -2.49934,2.7197 -2.49934,2.7196 -3.32406,2.0266 -3.32407,2.0266 h -1.62756 -1.62755 z m -46.94479,-8.4659 -5.51217,-0.8216 -2.73783,-1.0409 -2.73782,-1.0409 v -1.5057 -1.5057 l 2.48235,-0.623 2.48235,-0.6231 3.16687,1.104 3.16688,1.104 h 4.38232 4.38232 l 6.21846,-2.0752 6.21845,-2.0752 4.5,-2.5837 4.5,-2.5837 7.22607,-5.0911 7.22607,-5.0911 0.0239,-0.75 0.024,-0.75 h -1.8 -1.8 l -1.2,-1.2 -1.2,-1.2 0.002,-2.05 0.002,-2.05003 -6.2521,0.322 -6.2521,0.3221 -3.46777,-2.3402 -3.46776,-2.3401 -0.9269,-3.2319 -0.92669,-3.2319 h -6.95421 -6.95421 l -3.43571,-1.6304 -3.4357,-1.6303 -1.07401,-2.0068 -1.07401,-2.0068 0.52761,-3.2513 0.52762,-3.2513 -8.66903,-0.6857 -8.66903,-0.6858 -3.80899,-1.1017 -3.80899,-1.1018 -1.00979,-1.8868 -1.00979,-1.8869 0.31878,-3.1028 0.31878,-3.1029 -7,-1.38175 -7,-1.38174 -7.41125,-3.47989 -7.41124,-3.47989 -6.08876,-4.36634 -6.08875,-4.36635 -10.73241,-9.47478 -10.73241,-9.47478 -5.26759,-1.89357 -5.26759,-1.89356 v -1.39881 -1.3988 l 3.5,-1.22306 3.5,-1.22305 -3,-1.18337 -3,-1.18337 -9.5,-6.35517 -9.5,-6.35517 -6.16149,-6.32763 -6.16149,-6.32762 -5.58851,-7.85509 -5.58851,-7.8551 v -1.34521 -1.34522 l 1.52415,-0.85296 1.52416,-0.85296 -3.77416,-1.8277 -3.77415,-1.82771 -3.74424,-0.34036 -3.74424,-0.34037 -3.25576,-1.66572 -3.25576,-1.66572 -4.89399,-3.87358 -4.89399,-3.87357 -4.28027,-5.51215 -4.28027,-5.51215 -0.32574,-0.92722 -0.32574,-0.92723 -9.45852,-0.94368 -9.45853,-0.94368 -3.35617,-3.66222 -3.35617,-3.66222 0.39302,-1.19409 0.39303,-1.19409 1.98391,-0.29495 1.98391,-0.29494 4.77066,2.04494 4.77067,2.04495 h 3.4171 3.41709 v -0.87288 -0.87288 l -2.13639,-4.87712 -2.13638,-4.87712 -1.93171,-2.75 -1.93171,-2.75 h -3.27692 -3.27691 l -1.65499,-1.82874 -1.65499,-1.82874 v -2.15221 -2.15221 l 2.36571,-0.59375 2.36571,-0.59376 3.98018,1.07175 3.98017,1.07175 4.48817,4.55233 4.48817,4.55233 -0.44783,-3.05126 -0.44783,-3.05126 1.69368,-2.58488 1.69368,-2.58488 -0.32991,-0.27868 -0.3299,-0.27869 -4.17702,-2.60103 -4.17702,-2.60102 -3.57298,-3.13712 -3.57298,-3.13711 v -2.41785 -2.41785 l 2.5,-1.13907 2.5,-1.13908 v -0.60016 -0.60015 l -5.58532,-4.45684 -5.58531,-4.45684 -2.41469,-4.12035 -2.41468,-4.12035 v -2.43963 -2.43964 l 1.50716,-2.15177 1.50715,-2.15176 -5.33105,-7.43038 -5.33105,-7.43038 -2.19223,-4.66377 -2.19223,-4.66377 -7.73388,-3.81564 -7.73387,-3.81565 -5.5,-3.2785 -5.5,-3.2785 -6.39267,-5.08207 -6.39267,-5.08208 -5.35907,-6.49705 -5.35906,-6.49704 -1.99827,-5.34084 -1.99826,-5.34084 v -3.02822 -3.02823 l 1.12496,-2.18426 1.12497,-2.18426 2.00062,-2.19813 2.00061,-2.19812 2.97551,-0.65354 2.97551,-0.65353 4.57941,1.28216 4.5794,1.28215 3.63901,3.63901 3.63901,3.63901 1.26869,4.53132 1.26869,4.53131 -1.04025,3.76746 -1.04024,3.76745 -1.70294,1.88173 -1.70294,1.88172 h -2.91075 -2.91075 l -1.93426,-1.03518 -1.93426,-1.03519 v 0.64128 0.64128 l 3.04282,3.84188 3.04282,3.84187 6.28285,4.99941 6.28285,4.99942 7.72617,4.16744 7.72617,4.16745 0.502,-0.502 0.50199,-0.502 -1.52057,-11.86283 -1.52057,-11.86283 -0.91718,-11.0623 -0.91718,-11.06229 -2.1259,-4.1671 -2.12589,-4.1671 -2.81249,-1.45439 -2.81249,-1.4544 -1.58076,-4.02422 -1.58076,-4.02422 1.25436,-1.04102 1.25435,-1.04102 3.89871,2.86349 3.8987,2.8635 2.12644,2.38554 2.12645,2.38553 2.621,4.22609 2.62101,4.22608 2.47335,8.53502 2.47335,8.53502 0.86587,10.33579 0.86588,10.33578 2.17775,4.49864 2.17776,4.49864 5.37256,5.93687 5.37255,5.93687 5.86302,2.89902 5.86301,2.89902 5.74763,0.4386 5.74763,0.4386 4.00237,-4.00237 4.00237,-4.00238 v -7.08013 -7.08013 l -2.05972,-5.5051 -2.05972,-5.50509 -4.45095,-3.91788 -4.45095,-3.91788 -2.73907,-0.52361 -2.73908,-0.52361 -3.25025,1.35804 -3.25026,1.35805 v 2.98414 2.98414 l 3.06039,-0.087 3.06039,-0.087 1.3738,1.40389 1.37381,1.4039 0.65246,2.66334 0.65247,2.66334 -2.08666,2.08666 -2.08666,2.08664 h -2.86514 -2.86514 l -2.75604,-2.1679 -2.75604,-2.1679 -1.37882,-3.29998 -1.37882,-3.29998 0.0147,-4.28212 0.0147,-4.28212 1.23526,-2.4036 1.23526,-2.4036 2.6001,-1.92973 2.6001,-1.92974 h 4.628 4.628 l 5.2719,2.4197 5.2719,2.41969 4.6094,4.48969 4.60941,4.4897 3.69178,7.4698 3.69178,7.46981 0.57856,5.60575 0.57857,5.60576 -0.67908,3.61976 -0.67907,3.61977 -2.9634,3.37513 -2.96341,3.37514 -4.23727,1.71318 -4.23727,1.71317 -6,0.002 -6,0.002 -5.62918,-1.9935 -5.62917,-1.9935 -3.85039,-2.6164 -3.85039,-2.61641 -4.77043,-4.62768 -4.77036,-4.62776 v 1.19147 1.19148 l 3.36912,7.18446 3.36912,7.18446 3.7088,4.25 3.70881,4.25 4.67207,0.0237 4.67208,0.0237 5.76428,2.37044 5.76429,2.37043 4.40232,3.35583 4.40232,3.35583 1.5834,2.65429 1.58339,2.65429 v 2.90715 2.90715 l -2.03896,2.18856 -2.03895,2.18863 h -3.42209 -3.42209 l -2.03895,-2.18856 -2.03896,-2.18856 v -1.65645 -1.65645 l 1.99647,-1.80678 1.99647,-1.80678 -1.17364,-1.41415 -1.17363,-1.41414 -2.78417,-1.43975 -2.78416,-1.43975 -4.08712,-0.16014 -4.08713,-0.16015 -1.60009,1.60009 -1.6001,1.6001 1.28651,3.1059 1.2865,3.10589 4.01258,3.43463 4.01259,3.43462 4.09946,1.48939 4.09946,1.4894 30,2.53495 30,2.53495 3,0.47497 3,0.47498 18,1.96188 18,1.96188 11.5,1.11008 11.5,1.11009 8,0.70393 8,0.70393 0.34001,2.40613 0.34001,2.40613 -8.84001,-0.63979 -8.84001,-0.63979 -13.5,-1.01084 -13.5,-1.01085 -13,-1.01852 -13,-1.01852 -22,-1.47229 -22,-1.47228 -7,-0.56918 -7,-0.56919 6.35852,3.80257 6.35852,3.80258 7.02085,7.39112 7.02084,7.39113 4.53552,9.61079 4.53551,9.6108 2.34128,3.73989 2.34128,3.73989 3.88142,2.5686 3.88142,2.5686 28.86242,-2.07128 28.86242,-2.07129 17.5,-1.46138 17.5,-1.46139 9.84219,-0.95906 9.84219,-0.95906 1.40781,0.54023 1.40781,0.54023 v 1.83174 1.83173 l -4.25,0.57945 -4.25,0.57945 -8.5,0.93603 -8.5,0.93604 -26.68799,3.06565 -26.68799,3.06565 -9.31201,0.90265 -9.31201,0.90266 -16,1.6205 -16,1.6205 -5.25,1.02788 -5.25,1.02789 v 0.7728 0.77281 l 6.82083,2.32214 6.82084,2.32215 16.92916,-2.15266 16.92917,-2.15266 10,-1.01641 10,-1.01641 26.321,-2.01795 26.32099,-2.01795 14.67901,-1.47346 14.679,-1.47346 7.47614,-0.94014 7.47614,-0.94013 1.27386,1.05721 1.27386,1.05721 v 1.33224 1.33224 l -3.25,0.55332 -3.25,0.55331 -15.5,1.97494 -15.5,1.97494 -32,3.54565 -32,3.54565 -11.30122,1.47141 -11.30121,1.47141 h -1.01999 -1.01998 l 3.5712,3.36808 3.5712,3.36807 v 2.99607 2.99606 l 4.75,1.78456 4.75,1.78456 2.76509,1.93014 2.76509,1.93014 1.54225,2.98239 1.54226,2.98239 -1.10787,3.35686 -1.10786,3.35686 -2.44978,1.60516 -2.44978,1.60516 -5.73515,1.30252 -5.73515,1.30252 4.64502,1.58272 4.64502,1.58272 31.84043,-10.42519 31.84043,-10.4252 16,-4.94721 16,-4.94722 20.43827,-5.58096 20.43827,-5.58096 2.05152,0.29488 2.05151,0.29488 0.32287,1.69459 0.32286,1.69458 -4.31265,1.11895 -4.31265,1.11894 -18,5.38117 -18,5.38117 -16,5.38491 -16,5.38491 -18.84669,6.86448 -18.84669,6.86448 4.91732,2.17016 4.91733,2.17015 2.17936,2.77061 2.17937,2.77062 v 1.73733 1.73733 l 4.09177,0.6543 4.09176,0.6543 3.84215,1.96012 3.84216,1.96012 1.56608,2.2359 1.56608,2.23589 v 3.05499 3.05499 l -1.56608,2.23589 -1.56608,2.2359 -3.89408,1.98661 -3.89408,1.98661 h -2.98082 -2.98083 l -0.57187,0.92531 -0.57187,0.9253 5.76286,1.63131 5.76285,1.63131 1.84377,0.54054 1.84378,0.54053 6.40622,-1.83466 6.40623,-1.83466 v -0.58818 -0.58817 l -2.5,-2.34863 -2.5,-2.34863 v -2.87534 -2.87535 l 1.42322,-2.75221 1.42323,-2.75221 4.67236,-4.30684 4.67237,-4.30683 9.15441,-4.31592 9.15441,-4.31591 28.59573,-9.07538 28.59573,-9.07538 h 2.03182 2.03183 l 1.13478,1.36732 1.13477,1.36732 -1.26233,0.96503 -1.26233,0.96502 -18.5,6.7465 -18.5,6.74649 -14.41289,5.37581 -14.4129,5.37581 -4.80566,3.27936 -4.80566,3.27936 -1.67768,3.11527 -1.67768,3.11527 0.62226,2.47928 0.62226,2.47928 2.57103,1.17144 2.57103,1.17144 h 1.90589 1.90589 l 2.58605,1.17828 2.58604,1.17828 -0.29061,1.50903 -0.29061,1.50903 -8.49838,2.14124 -8.49838,2.14125 -3.704,1.76356 -3.70401,1.76353 -1.18849,1.4321 -1.1885,1.432 0.56328,0.5633 0.56327,0.5633 3.82923,0.8887 3.82922,0.8887 4.77144,0.024 4.77144,0.024 3.88151,-2.5687 3.8815,-2.5686 4.75599,-1.4314 4.75598,-1.4314 h 4.20621 4.20621 l 2.63486,2.0726 2.63486,2.0726 v 3.2724 3.2724 l -1.75,1.5367 -1.75,1.5367 -2.29896,0.7012 -2.29897,0.7013 -2.45103,-1.606 -2.45104,-1.606 v -1.4179 -1.418 l -1.08126,-0.6682 -1.08126,-0.6683 -2.84608,2.7267 -2.84608,2.7268 -1.21703,2.9381 -1.21702,2.9382 1.19436,1.1943 1.19437,1.1944 4.7,-0.017 4.7,-0.017 5.2567,-3.8316 5.2567,-3.8315 5.00403,-1.9014 5.00402,-1.9014 h 4.58928 4.58927 l 3.4,3.4 3.4,3.4 -0.004,0.85 -0.004,0.85 -1.99672,3.2749 -1.99672,3.2749 -2.63162,1.0006 -2.63162,1.0005 -1.87889,-0.5963 -1.87888,-0.5963 -1.5299,-2.9585 -1.5299,-2.9585 0.59988,-0.9707 0.6004,-0.9706 h -1.01691 -1.01691 l -4.0421,3.8452 -4.04211,3.8451 v 2.6358 2.6358 l 2.51281,0.6307 2.51281,0.6306 4.51974,-0.6777 4.51974,-0.6778 6.21745,-4.4418 6.21745,-4.4418 4,-1.9701 4,-1.9701 3.75,-0.022 3.75,-0.022 v 1.4122 1.4122 l -6.25,4.4937 -6.25,4.4938 -3.95295,4.094 -3.95295,4.0941 h 0.74279 0.74279 l 3.71016,-1.9309 3.71016,-1.9308 7.61645,-6.3192 7.61644,-6.3191 16.88356,-14.5468 16.88355,-14.5468 16,-12.89465 16,-12.89464 9.5,-8.11631 9.5,-8.1163 5.3398,-4.19225 5.3398,-4.19225 h 2.4102 2.4102 v 1.34659 1.3466 l -19.25,16.39684 -19.25,16.39684 -17,15.40743 -17,15.4074 -9.40437,8.5992 -9.40438,8.5991 -1.59562,1.3242 -1.59563,1.3242 2.5,-0.6385 2.5,-0.6386 6.56537,-0.5568 6.56537,-0.5568 3.15498,1.6315 3.15499,1.6315 1.02965,1.9239 1.02964,1.9239 v 3.6056 3.6056 l -1.90842,3.71013 -1.90841,3.7102 -2.84159,2.6964 -2.84158,2.6964 -5,2.2606 -5,2.2605 -6.83432,0.043 -6.83431,0.043 -2.41569,-2.8058 -2.41568,-2.8056 v -2.2699 -2.27 l 2.31445,-2.1743 2.31445,-2.1743 h 2.75129 2.75129 l 1.93426,1.0352 1.93426,1.0352 v 2.9648 2.9648 h 1.75 1.75 l 3.07969,-1.878 3.07969,-1.878 1.28359,-3.0988 1.28359,-3.0989 -0.64121,-2.55483 -0.64121,-2.5547 -2.72207,-1.038 -2.72207,-1.038 -4.5,0.6261 -4.5,0.626 -4.81617,1.5496 -4.81617,1.5497 -9.68383,7.18933 -9.68383,7.1894 -11.5,7.1419 -11.5,7.1419 -5.05884,1.9764 -5.05885,1.9765 -4.94115,0.6543 -4.94116,0.6543 -2.5,0.3229 -2.5,0.3229 z m -39.24859,-90.59996 2.76077,-2.05362 0.30591,-2.04561 0.30592,-2.04562 -4.61339,-1.76186 -4.61338,-1.76187 -3.45629,1.64819 -3.45629,1.64819 -4.23624,0.64338 -4.23624,0.64339 -1.40886,0.74488 -1.40885,0.74489 4.40885,3.21074 4.40886,3.21074 6.23923,-0.3861 6.23923,-0.3861 z m -19.09283,-13.51222 2.8536,-1.3677 v -1.3786 -1.37861 l -2.5,-1.82409 -2.5,-1.82408 -4.59942,-1.20097 -4.59942,-1.20096 -6.65058,1.90464 -6.65058,1.90464 0.0362,0.51249 0.0362,0.51249 5.21381,3.72724 5.21382,3.72723 5.6464,-0.37301 5.64639,-0.37302 z m -35.54631,-26.85194 3.60009,-1.00003 1.78792,-1.97563 1.78792,-1.97563 -1.184,-1.42665 -1.18401,-1.42664 -3.43259,-1.62887 -3.43259,-1.62887 -2.97175,1.53676 -2.97176,1.53675 h -6.23675 -6.23675 l 2.81288,2.93602 2.81289,2.93602 3.12421,1.54121 3.1242,1.54121 2.5,0.0172 2.5,0.0172 z m -13.10895,-17.27867 2.49114,-1.26037 0.28579,-1.48398 0.28579,-1.48399 -4.27693,-2.82173 -4.27693,-2.82174 -7.47913,0.6433 -7.47913,0.6433 -0.38494,0.38493 -0.38494,0.38494 2.19181,3.54641 2.1918,3.54642 1.67227,0.97577 1.67226,0.97578 5.5,0.0157 5.5,0.0157 z m -46.2037,-29.51492 2.28744,-1.76031 -4.67429,-2.27095 -4.6743,-2.27094 -3.42209,-2.61016 -3.42209,-2.61016 -1.44106,-2.78669 -1.44105,-2.78669 -0.039,-3.79966 -0.039,-3.79966 -4.58641,-3.37623 -4.58641,-3.37623 0.37541,0.87623 0.37541,0.87623 5.39723,10.35608 5.39723,10.35609 5.26615,5.39391 5.26614,5.39392 0.83663,-0.0222 0.83662,-0.0222 z m 25.21256,-6.2266 V 845.986 l -1.40915,-0.54074 -1.40915,-0.54074 -4.6572,-5.92788 -4.6572,-5.92787 h -7.36222 -7.36222 l -1.57143,1.57143 -1.57143,1.57143 v 1.06049 1.0605 l 3.40838,3.21451 3.40838,3.21452 5.34162,1.57289 5.34162,1.5729 6.25,0.0807 6.25,0.0806 z m -16,-21.50186 v -0.53325 l -2.45212,-4.83901 -2.45211,-4.83902 -4.15139,-1.66106 -4.15139,-1.66105 -4.22797,-0.57951 -4.22798,-0.57951 -3.16852,1.6385 -3.16852,1.63851 v 1.3964 1.39639 l 4.18,3.57793 4.18,3.57792 6.57,0.0997 6.57,0.0997 2.5,0.80064 2.5,0.80064 0.75,0.0997 0.75,0.0996 z m -17.77713,-25.28292 -5.27713,-4.72958 1.22713,-1.22713 1.22713,-1.22713 h -9.7 -9.7 v 0.90576 0.90577 l 4.54701,3.01181 4.54701,3.01182 6.72905,1.135 6.72904,1.135 1.47395,0.93211 1.47394,0.9321 1,-0.028 1,-0.028 z m 329.81231,204.88189 -1.03518,-1.9342 v -2.5091 -2.50903 l 2.22251,-1.5567 2.2225,-1.5567 h 2.20607 2.20606 l 1.57143,1.5714 1.57143,1.5715 v 2.77353 2.7736 l -1.82874,1.655 -1.82874,1.655 h -3.13608 -3.13607 z m -208.55448,-11.45623 -1.90156,-1.3904 1.21043,-2.6566 1.21043,-2.6566 v -0.4228 -0.4228 l -3.60058,2.4434 -3.60058,2.4434 -3.39189,0.6363 -3.39189,0.6364 -1.53021,-0.5872 -1.53021,-0.5872 -0.5986,-1.56 -0.5986,-1.5599 1.70264,-1.8814 1.70264,-1.8814 -2.08136,-2.0813 -2.08136,-2.0814 v -0.9286 -0.9285 l 1.57143,-1.5715 1.57143,-1.5714 h 4.46069 4.46069 l 3.59,-1.5 3.59001,-1.5 h 1.81049 1.81048 l 0.66611,2.0987 0.66611,2.0987 1.68037,1.6804 1.68036,1.6804 3.20102,-0.9181 3.20102,-0.918 1.5199,1.2614 1.51989,1.2614 v 1.3697 1.3697 l -3.75,1.7645 -3.75,1.7646 -1,2.9933 -1,2.9933 -0.80902,1.25 -0.80901,1.25 h -2.74986 -2.74985 z m 614.076,-153.83201 -1.5567,-2.2225 v -4.37637 -4.37636 l -1.6101,-3.39303 -1.61009,-3.39303 0.58741,-1.53078 0.58742,-1.53078 1.69629,-0.65093 1.69629,-0.65093 1.66001,-1.66001 1.66001,-1.66001 -0.88518,-2.39287 -0.88518,-2.39288 0.57061,-2.2735 0.57061,-2.27351 h 1.88291 1.88291 l 1.9404,3.73906 1.9404,3.73906 3.40764,0.94947 3.40764,0.94947 0.73469,1.06147 0.73468,1.06147 0.0153,2.67857 0.0153,2.67857 -1.62894,1.62894 -1.62894,1.62894 -1.12106,-0.46158 -1.12106,-0.46157 -1.86603,-0.74745 -1.86603,-0.74745 3.11603,4.30156 3.11603,4.30155 v 3.72751 3.72752 l -1.55453,1.29014 -1.55452,1.29014 -2.10269,-2.10269 -2.10269,-2.10269 -1.91536,2.435 -1.91534,2.43499 h -1.37072 -1.37071 z m -801.5567,-58.77749 -2,-2 v -1.42857 -1.42857 l 1.57143,-1.57143 1.57143,-1.57143 1.17857,-0.13112 1.17857,-0.13111 -5.71896,-0.73354 -5.71897,-0.73354 -2.53103,-1.6584 -2.53104,-1.6584 v -2.39749 -2.39749 l 2.99343,-0.65747 2.99344,-0.65747 -0.98985,-1.84954 -0.98985,-1.84955 0.60672,-1.58107 0.60671,-1.58107 2.34195,-0.5878 2.34196,-0.58779 4.29774,3.03757 4.29775,3.03757 3.7159,0.66375 3.71591,0.66375 0.61671,1.94309 0.61672,1.9431 -0.96746,1.20201 -0.96745,1.20201 0.85799,2.26454 0.85799,2.26455 2.31794,0.88128 2.31794,0.88128 1.32078,1.59144 1.32078,1.59144 -0.6234,1.62455 -0.6234,1.62455 -4.50055,-0.6749 -4.50055,-0.6749 -2.62278,2.06309 -2.62279,2.06308 h -1.86514 -1.86514 z m 849.59792,-44.545 -1.545,-1.545 -1.0048,-3.73133 -1.0047,-3.73133 -2.5217,-3.41795 -2.5217,-3.41795 v -1.89934 -1.89934 l 1.9429,-0.50807 1.9429,-0.50808 0.6582,-2.99714 0.6583,-2.99714 -1.1011,-1.10117 -1.1012,-1.10116 v -2.8 -2.8 h 1.618 1.618 l 3.4259,3.00802 3.426,3.00803 2.3694,-0.59468 2.3694,-0.59469 2.0866,2.08666 2.0867,2.08666 v 1.91821 1.91822 l -0.607,1.58178 -0.607,1.58179 -3.143,0.0316 -3.143,0.0316 2.5228,2.22504 2.5229,2.22504 1.7271,2.46586 1.7272,2.46587 v 3.2775 3.27749 h -2.441 -2.441 l -0.618,-1 -0.618,-1 h -1 -1 l 0.5173,0.83703 0.5173,0.83703 -1.515,2.16297 -1.515,2.16297 h -1.3719 -1.3718 z M 267.8223,626.46424 244.51028,605.87972 224.06974,589.71424 203.6292,573.54877 l -0.71641,-0.30232 -0.71641,-0.30231 1.02847,4.05184 1.02846,4.05184 -1.29182,3.11874 -1.29183,3.11875 -3.07969,1.87799 -3.07969,1.87799 -3,-0.0182 -3,-0.0182 -4,-1.82342 -4,-1.82342 -3.34294,-2.82172 -3.34294,-2.82171 -2.46216,-3.90032 -2.46216,-3.90031 -0.56574,-4.77681 -0.56574,-4.77681 1.71734,-3.61902 1.71733,-3.61902 1.95247,-0.61969 1.95247,-0.61969 2.36414,1.54905 2.36413,1.54904 0.65348,2.97523 0.65347,2.97524 -1.10176,2.05865 -1.10176,2.05861 h -1.96481 -1.96482 v 1.59879 1.59879 l 3.07163,2.86934 3.07164,2.86933 3.42179,0.64193 3.42179,0.64194 2.63096,-0.66033 2.63096,-0.66033 -0.48386,-4.19973 -0.48386,-4.19973 -2.77196,-4.5 -2.77197,-4.5 -6.44701,-5 -6.44701,-5 -10.67155,-11.0499 -10.67155,-11.04991 -4.08643,-6.95009 -4.08643,-6.9501 -2.82113,-7 -2.82113,-7 -0.43603,-7.5 -0.43604,-7.5 1.06885,-2.75 1.06884,-2.75 h 1.5057 1.5057 l 0.46768,2.25 0.46768,2.25 0.42117,8 0.42117,8 2.12733,4.82621 2.12733,4.8262 3.74226,5.6738 3.74227,5.67379 8.40317,8.75 8.40318,8.75 h 0.78762 0.78763 l -0.9302,-3.2434 -0.93019,-3.2434 v -3.77804 -3.77804 l 2.514,-1.14545 2.51401,-1.14546 -0.76401,-3.58311 -0.764,-3.5831 0.01,-4.84637 0.01,-4.84637 2.25348,-1.82476 2.25348,-1.82475 1.15234,-0.38412 1.15234,-0.38411 -1.16572,-3.34398 -1.16592,-3.34399 v -5.39623 -5.39623 l 2.45455,-2.45454 2.45454,-2.45455 h 3.16203 3.16203 l -0.64292,-2.75 -0.64292,-2.75 -0.61046,-8.71673 -0.61047,-8.71673 1.61144,-2.45937 1.61144,-2.45937 3.52537,-1.27479 3.52537,-1.27479 v -7.48522 -7.48522 l 1.5667,-6.56389 1.5667,-6.56389 5.89677,-12 5.89677,-12 6.16353,-9.5 6.16353,-9.5 2.80914,-5.79537 2.80913,-5.79537 -2.98564,-7.01615 -2.98564,-7.01614 -2.05392,-8.18849 -2.05392,-8.18848 0.48166,-14 0.48166,-14 2.67553,-8.95066 2.67554,-8.95065 4.07094,-7.82486 4.07094,-7.82486 2.51015,-1.97449 2.51015,-1.97448 h 1.86514 1.86514 v 3.31291 3.31291 l -3.08921,2.93709 -3.08922,2.93709 -2.33597,4 -2.33598,4 -2.31471,7 -2.3147,7 0.0313,14.5 0.0313,14.5 2.61896,7.5 2.61897,7.5 3.33967,7.24983 3.33967,7.24983 0.75,1.7e-4 0.75,1.7e-4 0.022,-4.75 0.022,-4.75 1.87392,-4.12663 1.87391,-4.12663 1.26124,-0.77949 1.26125,-0.7795 3.24206,0.12189 3.24206,0.12188 1.07477,-6.10152 1.07476,-6.10152 1.61098,-2.45866 1.61097,-2.45867 1.66508,0.48097 1.66508,0.48097 1.75,0.72045 1.75,0.72044 v -2.42549 -2.42549 l 1.51075,-5.08725 1.51076,-5.08726 2.99125,-3.20215 2.99125,-3.20215 2.248,0.54294 2.24799,0.54293 3.74518,-7.87581 3.74518,-7.87581 9.75482,-8.4578 9.75482,-8.4578 2.3005,-3.12923 2.30049,-3.12923 0.94951,0.58683 0.9495,0.58682 0.0423,5.19099 0.0423,5.19098 2.48213,-6 2.48213,-6 3.22279,-4.73787 3.22279,-4.73787 1.33004,-0.51038 1.33003,-0.51038 2.1167,2.37638 2.1167,2.37638 2.2089,-4.76769 2.20891,-4.76769 3.79184,-4.19712 3.79184,-4.19712 3.05533,0.4343 3.05533,0.43429 1.5,0.6524 1.5,0.6524 2.36373,-4.14574 2.36372,-4.14573 3.89181,-4.22211 3.89181,-4.22212 3.78953,-2.62615 3.78953,-2.62615 1.80229,-7.75601 1.80228,-7.75602 3.36104,-8.34114 3.36104,-8.34113 4.61383,-7.86994 4.61383,-7.86995 5.67778,-5.84164 5.67778,-5.84165 4.7391,-2.19728 4.7391,-2.19727 h 4.45514 4.45513 l 2.65414,2.283 2.65415,2.28299 0.52046,4.61755 0.52046,4.61754 -2.53177,5.53011 -2.53177,5.53012 -4.16961,3.02045 -4.16961,3.02045 -4.28575,0.64269 -4.28574,0.64268 -3.11723,-1.61198 -3.11723,-1.61198 -0.48453,-2.23181 -0.48453,-2.23181 -0.27996,-2.46604 -0.27995,-2.46603 -4.19106,6.46603 -4.19106,6.46604 -3.08385,6.89875 -3.08386,6.89875 -1.97509,6.0164 -1.9753,6.01641 v 0.73315 0.73314 l 14.18444,-4.79029 14.18443,-4.79029 1.31557,-1.79914 1.31556,-1.79914 v -1.59664 -1.59665 l 2.91775,-3.46222 2.91776,-3.46223 1.19555,1.1633 1.19555,1.16331 -0.37793,3.96293 -0.37793,3.96293 5.01463,-4.2041 5.01462,-4.2041 3.5,-2.06658 3.5,-2.06657 3.95412,-2.08891 3.95412,-2.0889 5.11909,-13.82953 5.11909,-13.82952 3.13558,-4.55741 3.13558,-4.55741 4.87879,-4.37972 4.87879,-4.37972 4.52195,-2.25 4.52195,-2.25 h 4.58145 4.58146 l 0.67716,-1.09567 0.67716,-1.09567 7.10364,-3.40433 7.10365,-3.40433 h 5.37708 5.37708 l 3.44518,1.63484 3.44518,1.63485 1.56579,3.0279 1.56579,3.0279 -0.5229,3.89849 -0.52289,3.89849 -2.22124,3.24168 -2.22124,3.24169 -3.6157,2.38708 -3.61571,2.38709 -5.09447,0.06 -5.09447,0.06 -2.74084,-1.46464 -2.74085,-1.46464 -1.4113,-2.72916 -1.4113,-2.72916 0.97186,-2.5562 0.97187,-2.5562 h -1.03586 -1.03585 l -7.6894,7.75062 -7.68939,7.75062 -4.20747,7.49938 -4.20748,7.49938 -1.61416,3.88933 -1.61416,3.88932 3.32164,-0.64646 3.32163,-0.64646 6.06611,-2.965 6.0661,-2.96499 1.39217,-2.77787 1.39217,-2.77787 2.04172,-1.72776 2.04173,-1.72777 1.75,-0.0222 1.75,-0.0223 v 2.29983 2.29983 l -2.59986,3.95017 -2.59985,3.95017 -4.65015,3.7569 -4.65014,3.75689 -6.67746,3.24311 -6.67746,3.2431 -2.10952,4.18358 -2.10953,4.18359 -2.51368,7.31641 -2.51368,7.31642 -2.99317,12.5 -2.99317,12.5 -3.91994,13 -3.91994,13 -8.66264,29 -8.66264,29 -2.72901,8.95751 -2.72901,8.95752 -1.61705,1.02001 -1.61705,1.02001 -0.99942,-0.99942 -0.99943,-0.99943 3.49786,-12.4781 3.49785,-12.4781 6.47521,-25.32602 6.47521,-25.32603 5.49884,-19.30782 5.49883,-19.30782 v -1.58243 -1.58243 l -3.51504,2.07393 -3.51504,2.07392 -3.23496,-0.45527 -3.23496,-0.45526 -1.5,-0.65873 -1.5,-0.65872 -2.68393,4.25634 -2.68394,4.25634 -3.06606,2.93709 -3.06607,2.93709 v 2.63141 2.63141 l -1.58996,5.35398 -1.58997,5.35399 -1.63073,2.57751 -1.63074,2.57752 -2.91173,3.70652 -2.91172,3.70652 -5.83809,4.58667 -5.8381,4.58667 -4.67614,2.06848 -4.67614,2.06848 -5.10334,-0.42955 -5.10334,-0.42954 -2.96267,-1.43213 -2.96267,-1.43212 -2.22951,-3.31208 -2.2295,-3.31208 -1.24211,-5.5503 -1.2421,-5.55029 1.20937,-7.13763 1.20936,-7.13762 3.44372,-7.28811 3.44373,-7.28811 -3.0797,1.78811 -3.0797,1.78811 -3.82444,4.31732 -3.82444,4.31732 -0.65382,2.97683 -0.65382,2.97682 1.19738,4.99126 1.19739,4.99126 -0.69088,4.7146 -0.69088,4.71459 -1.76515,4.03303 -1.76515,4.03304 -3.22893,2.71696 -3.22893,2.71697 h -1.84149 -1.84149 l -1.69298,-0.64966 -1.69299,-0.64966 -1.28543,-3.05713 -1.28543,-3.05713 0.95919,-2.52286 0.95919,-2.52286 1.18744,-0.75504 1.18744,-0.75503 2.70031,-0.0153 2.70031,-0.0153 0.97937,1.75 0.97937,1.75 1.07032,-2.8151 1.07032,-2.81513 v -0.97474 -0.97474 l -2.01286,-3.94553 -2.01287,-3.94554 -2.49214,-1.63292 -2.49214,-1.63291 -1.39321,1.15626 -1.39321,1.15626 -2.60178,7.01924 -2.60179,7.01924 v 5.7647 5.76471 l 2.53368,14.92808 2.53367,14.92809 0.95756,27 0.95757,27 1.0372,16.5 1.0372,16.5 1.3756,15.5 1.3756,15.5 -1.46777,2.31209 -1.46778,2.31209 -1.18626,-0.39077 -1.18627,-0.39078 -1.17592,-11.42131 -1.17591,-11.42132 -2.07135,-22.5 -2.07135,-22.5 -2.03607,-28 -2.03607,-28 -1.02152,-8.5 -1.02152,-8.5 -2.03107,-9.39517 -2.03107,-9.39517 -0.7543,-2.03906 -0.7543,-2.03906 -2.5668,5.43423 -2.5668,5.43423 -1.50927,5.793 -1.50927,5.793 1.83939,10.207 1.8394,10.207 1.56539,10.55086 1.5654,10.55086 1.48344,13.44914 1.48344,13.44914 2.02806,22.35221 2.02807,22.35221 v 3.77534 3.77535 l -1.36732,1.13478 -1.36732,1.13477 -0.96467,-1.26233 -0.96468,-1.26233 -1.65639,-13.5 -1.65639,-13.5 -2.51773,-20.5 -2.51772,-20.5 -2.00114,-12 -2.00114,-12 -0.54241,-2.37198 -0.54242,-2.37197 -3.4314,4.00881 -3.43139,4.00882 -2.51052,0.6301 -2.51052,0.6301 -3.3361,-1.39391 -3.3361,-1.39392 -1.67232,-3.52415 -1.67232,-3.52416 v -4.4322 -4.43221 l -0.64001,-0.64 -0.64,-0.64001 -1.70502,3.17918 -1.70501,3.17919 2.37409,6.04415 2.37409,6.04416 2.93178,9.5 2.93178,9.5 5.4838,27.10016 5.4838,27.10016 1.60684,11.61936 1.60685,11.61937 -1.1192,2.09124 -1.1192,2.09124 -1.12388,-0.37463 -1.12388,-0.37462 -2.69568,-12.93614 -2.69568,-12.93614 -6.14355,-25 -6.14355,-25 -0.41816,-1.19881 -0.41815,-1.19881 -3.04386,1.51847 -3.04386,1.51848 -2.00286,-0.63569 -2.00286,-0.63568 -5.25431,-4.53464 -5.25431,-4.53465 -2.32161,-1.09248 -2.32162,-1.09248 -0.91307,1.44315 -0.91307,1.44314 -0.0153,2.12756 -0.0153,2.12755 1.66169,1.37245 1.66169,1.37244 2.33831,5.27851 2.33831,5.27852 v 5.5036 5.50361 l -1.54773,3.70423 -1.54773,3.70424 -2.12658,2.26364 -2.12662,2.26365 h -2.76898 -2.76898 l -1.55671,-2.22251 -1.5567,-2.2225 v -3.12251 -3.1225 l 1.82874,-1.65499 1.82874,-1.65499 h 1.47126 1.47126 l 1.32185,1.25 1.32185,1.25 -0.52332,-4.96565 -0.52332,-4.96565 -3.58384,-3.28435 -3.58385,-3.28435 h -0.9795 -0.9795 l -1.21775,2.25 -1.21774,2.25 0.10213,8 0.10213,8 2.57346,7.5 2.57345,7.5 0.007,2.81574 0.007,2.81574 -1.03518,1.93426 -1.03524,1.93426 h -0.98956 -0.98957 l -1.03199,-2.75 -1.032,-2.75 -6.19325,-10.5 -6.19326,-10.5 -0.31484,2.73364 -0.31485,2.73363 18.21416,43.26637 18.21415,43.26636 9.75922,21.5 9.75923,21.5 5.59146,11.74131 5.59147,11.7413 v 2.44968 2.44968 l -0.79775,0.49303 -0.79774,0.49303 -1.21979,-0.75387 -1.2198,-0.75387 -14.37279,-29.93015 -14.37279,-29.93014 -9.69731,-22 -9.69731,-22 -3.75961,-8.23609 -3.75961,-8.23608 -0.65275,0.65275 -0.65275,0.65275 v 1.91026 1.91026 l -2.92308,2.92307 -2.92307,2.92308 h -2.02981 -2.02981 l 0.56071,4.75 0.56071,4.75 -1.13193,4.19638 -1.13193,4.19638 -2.61075,2.05362 -2.61076,2.05362 h -4.49706 -4.49707 l -3.30485,-3.50417 -3.30486,-3.50417 -1.26411,-3.49583 -1.26411,-3.49583 h -0.67411 -0.67411 l -0.625,3.125 -0.625,3.125 v 5.49298 5.49299 l 2.85288,3.24925 2.85288,3.24925 3.00715,-3.36723 3.00715,-3.36724 h 3.17981 3.17981 l 3.81837,1.94799 3.81837,1.94799 6.39179,6.90395 6.39179,6.90395 6.33957,11.17084 6.33957,11.17084 6.66829,13.22722 6.66828,13.22722 4.30342,9.31256 4.30342,9.31257 -0.32276,1.67595 -0.32276,1.67595 -1.68332,0.32418 -1.68332,0.32418 -8.43135,-16.8127 -8.43136,-16.81269 -5.72868,-10.5 -5.72868,-10.5 -4.27014,-6 -4.27014,-6 -4.95802,-4.63387 -4.95802,-4.63386 -3.27755,-0.71987 -3.27755,-0.71987 -1.48803,1.48803 -1.48804,1.48804 -0.0588,2.3657 -0.0588,2.3657 0.75876,5.04338 0.75876,5.04339 -1.54325,1.28079 -1.54326,1.28079 -2.18952,-4.32418 -2.18952,-4.32417 -3.42394,-5.18681 -3.42394,-5.18681 -3.10927,-1.96865 -3.10928,-1.96866 -1.33543,0.51246 -1.33543,0.51245 v 3.25652 3.25652 l 0.99103,5.22566 0.99102,5.22566 5.05877,4.54827 5.05876,4.54826 2.06866,4.05491 2.06867,4.05492 0.0708,4.69431 0.0708,4.69432 -1.62487,2.47986 -1.62487,2.47986 -1.97998,0.51778 -1.97997,0.51778 -2.33443,-1.16357 -2.33442,-1.16357 -1.26034,-2.62845 -1.26033,-2.62845 0.98558,-2.59229 0.98571,-2.59228 h 2.52475 2.52475 v -0.94911 -0.94911 l -3.50638,-2.67445 -3.50638,-2.67444 -4.47587,-0.5045 -4.47586,-0.50449 -0.65355,1.70312 -0.65355,1.70312 1.17521,3.9225 1.17521,3.92251 5.36185,3.96103 5.36185,3.96103 3.09873,6.20112 3.09874,6.20111 v 5.38574 5.38573 l -2.45455,2.45454 -2.45454,2.45455 h -1.59512 -1.59511 l -3.00741,-1.55519 -3.00742,-1.5552 0.30708,-3.6948 0.30707,-3.69481 3.12613,-1.5626 3.12614,-1.5626 -1.4076,-2.6865 -1.4076,-2.6865 -4.93529,-2.5009 -4.93529,-2.5009 h -1.53325 -1.53324 l -0.11515,2.25 -0.11516,2.25 0.22,2 0.21999,2 2.59043,4.42106 2.59043,4.42107 5.1021,5.07893 5.1021,5.07894 2.11675,3.03376 2.11675,3.03377 0.67569,3.60171 0.67568,3.60172 -1.20199,0.74287 -1.20199,0.74287 -3.63782,-4.05811 -3.63781,-4.05812 -7.25,-6.11705 -7.25,-6.11705 v 1.58006 1.58006 l 2.39415,4.71675 2.39415,4.71676 14.35585,11.95287 14.35585,11.95287 11.44116,9.54713 11.44116,9.54713 26.55884,24.39528 26.55884,24.39528 0.61161,1.60472 0.61162,1.60472 -0.4686,1.25 -0.46861,1.25 h -0.83099 -0.83099 z m -40.41901,-188.99726 0.60699,-1.58178 v -4.76323 -4.76322 l -2.10238,-1.90263 -2.10238,-1.90263 -1.40649,-2.71986 -1.4065,-2.71986 -0.7752,-3.73106 -0.7752,-3.73105 -2.20773,3.74183 -2.20774,3.74184 -0.61217,2.43906 -0.61216,2.43907 1.21483,5.06399 1.21484,5.064 3.25722,3.45366 3.25721,3.45366 h 2.02494 2.02493 z m 10.22038,-24.01398 0.6515,-2.59578 -0.60935,-5.82993 -0.60935,-5.82993 -2.22236,-4.5743 -2.22236,-4.57429 -0.55074,0.018 -0.55073,0.018 -3.08459,4.73204 -3.08458,4.73203 1.12482,5.60539 1.12482,5.60538 1.73282,2.64462 1.73282,2.64461 h 2.95789 2.9579 z m 48.80871,-73.06182 0.63608,-1.65759 -2.10492,-6.32527 -2.10491,-6.32526 -1.92351,-2.26715 -1.92351,-2.26714 -1.3239,1.6994 -1.32391,1.69939 -1.3509,4.09326 -1.3509,4.09327 4.92414,4.41253 4.92414,4.41253 1.14301,0.0448 1.14301,0.0448 z m 23.4556,-28.21532 2.40776,-4.37292 -1.24631,-8.37708 -1.2463,-8.37709 -0.64643,0.0125 -0.64642,0.0125 -4.25,3.94741 -4.25,3.94741 -0.18289,3.79012 -0.18289,3.79013 0.21771,2.97866 0.2177,2.97867 1.52838,2.3326 1.52839,2.33261 2.17177,-0.31127 2.17178,-0.31127 z m 87.68478,-39.15734 4.39881,-2.12942 5.17063,-4.64884 5.17063,-4.64885 1.82676,-4.02132 1.82677,-4.02132 0.022,-2.15517 0.022,-2.15517 -5.94319,0.5389 -5.94318,0.53891 -3.05682,-3.05681 -3.05689,-3.05681 v -2.44207 -2.44206 l 2.01564,-2.56247 2.01563,-2.56247 3.48783,-1.15108 3.48782,-1.15109 3.0205,0.66341 3.02049,0.66341 3.01389,2.53602 3.01389,2.53603 1.85259,-1.67657 1.85258,-1.67657 2.98664,-5.69417 2.98664,-5.69417 2.22572,-6.81388 2.22572,-6.81388 -0.39856,-0.39855 -0.39855,-0.39856 -5.45424,4.36146 -5.45423,4.36145 -3.5,5.05414 -3.5,5.05414 -1.38592,0.0468 -1.38593,0.0468 0.60418,-4.40793 0.60417,-4.40792 -5.69135,3.42715 -5.69135,3.42715 -5.5269,1.69794 -5.5269,1.69794 -2.85998,2.03284 -2.85998,2.03283 -3.9259,5.4629 -3.92591,5.46291 -2.07232,6.82267 -2.07233,6.82268 0.63688,4.24699 0.63688,4.247 1.99102,3.27398 1.99103,3.27398 3.2303,1.45197 3.23031,1.45197 3.33184,-0.45893 3.33183,-0.45894 z m 54.81944,-55.28466 3.11808,-3.31491 2.22253,-6.87922 2.22254,-6.87922 -0.41104,-0.41105 -0.41104,-0.41104 -6.29317,1.87922 -6.29317,1.87922 -2.25187,3.97596 -2.25188,3.97595 -0.0164,3.55 -0.0165,3.55 1.2,1.2 1.2,1.2 h 2.43192 2.43193 z m 13.69561,-39.93729 5.42247,-11.08499 3.80219,-5.94589 3.80218,-5.94588 -0.49959,-0.49959 -0.49958,-0.49959 -3.60731,2.22945 -3.60732,2.22944 -4.02763,5.33456 -4.02763,5.33456 -2.86908,7.69065 -2.86907,7.69064 -0.59973,2.73053 -0.59972,2.73052 2.37868,-0.45471 2.37867,-0.45472 z m 585.42249,423.38654 -4,-1.82174 -3.7946,-4.20858 -3.7947,-4.20857 -0.9553,-2.51283 -0.9554,-2.51282 v -2.91466 -2.91467 l 1.5292,-3.82188 1.5292,-3.82189 2.8751,-1.69835 2.8751,-1.69835 h 1.8732 1.8732 l 2.2872,1.602 2.2871,1.602 0.417,-0.41696 0.417,-0.41696 -5.2301,-7.93504 -5.23,-7.93504 -8.0016,-8.06835 -8.0016,-8.06835 -3.1693,-2.19226 -3.1692,-2.19226 -0.6089,6.76061 -0.6089,6.76061 -1.5393,11.64252 -1.5394,11.64252 1.0903,4.04909 1.0903,4.04909 3.8157,3.30839 3.8157,3.30839 1.1615,3.39922 1.1615,3.39923 v 1.85077 1.85078 h -1.5223 -1.5224 l -4.3372,-3.99791 -4.3372,-3.9979 -3.0451,-5.7521 -3.045,-5.75209 -1.5954,-5.4315 -1.5954,-5.4315 0.024,-7.5685 0.024,-7.5685 1.0328,-4.48226 1.0327,-4.48226 -4.6952,-9.45818 -4.6953,-9.45818 -4.56601,-4.88139 -4.56597,-4.88139 -3.41809,-1.42817 -3.4181,-1.42817 -3.12787,0.004 -3.12788,0.004 -3.20145,1.95204 -3.20145,1.95203 -1.54859,2.99465 -1.54859,2.99464 -1.48518,6.29958 -1.48518,6.29958 -0.0148,4.5685 -0.0148,4.5685 1.60464,5.40342 1.60465,5.40342 2.80833,4.08177 2.80834,4.08177 3.83702,2.63313 3.83702,2.63313 2.56323,0.62471 2.56323,0.62471 2.41404,-1.95477 2.41405,-1.95478 v -4.1017 -4.10171 l -2.22248,-2.22248 -2.22248,-2.22248 1.2452,3.30311 1.24521,3.3031 -2.80576,2.41433 -2.80483,2.4138 h -0.88847 -0.88847 l -2.6176,-2.25156 -2.6176,-2.25157 -0.56336,-4.20016 -0.56336,-4.20017 3.04827,-3.04827 3.04827,-3.04827 h 2.92904 2.92904 l 3.38266,2.27957 3.38265,2.27957 2.24878,3.97043 2.2488,3.97043 0.016,5.85 0.016,5.85 -3.40002,3.4 -3.4,3.4 h -5.0349 -5.0349 l -2.8151,-1.05589 -2.8151,-1.05589 -3.92742,-2.69411 -3.92741,-2.69411 -4.82141,-7.37651 -4.82142,-7.37652 -1.53722,-5.12348 -1.53723,-5.12349 -0.60908,-7.71 -0.60908,-7.70999 1.24818,-5.88168 1.24818,-5.88168 2.64695,-4.82658 2.64696,-4.82658 2.63576,-1.9417 2.63577,-1.94171 4.52768,-0.51034 4.52768,-0.51033 5.71916,1.79889 5.71915,1.7989 5.67413,4.17705 5.67419,4.17706 4.6932,6.24343 4.6933,6.24343 v -1.70474 -1.70474 l -1.5728,-6.14435 -1.5728,-6.14434 -3.3718,-7 -3.3718,-7 -3.07422,-3.68451 -3.07425,-3.68452 -5.29498,-1.53929 -5.29497,-1.53929 -4.08316,-2.95783 -4.08316,-2.95782 -2.75389,-3.61053 -2.75388,-3.61052 -0.47905,-4.98558 -0.47905,-4.98557 1.78488,-1.97227 1.78489,-1.97227 h 3.30605 3.30606 l 2.03895,2.18856 2.03896,2.18856 v 2.35919 2.35919 l -2.6509,2.45677 -2.6509,2.45677 1.77182,1.95783 1.77182,1.95784 3.4686,1.14474 3.4686,1.14474 3.06517,-0.61303 3.06517,-0.61304 1.34531,-1.1165 1.34621,-1.11651 v -2.23676 -2.23677 l -4.05264,-4.60404 -4.05264,-4.60404 -6.19736,-2.99929 -6.19736,-2.99929 -29,-4.61752 -29,-4.61753 -29.5,-5.4078 -29.5,-5.40781 -6.5,-1.16857 -6.5,-1.16857 -1.96111,-1.83245 -1.96111,-1.83245 1.16635,-1.16635 1.16636,-1.16636 6.29475,1.09455 6.29476,1.09454 23.5,3.98704 23.5,3.98704 27.5,4.0347 27.5,4.03471 13.77741,1.21155 13.77741,1.21154 1.22259,-1.26607 1.22259,-1.26607 -6.38054,-5.81774 -6.38055,-5.81774 -6.49373,-1.63117 -6.49373,-1.63117 -0.36695,0.36695 -0.36696,0.36695 4.67544,4.67544 4.67544,4.67544 h 0.81579 0.81579 v 2 2 h -1.68428 -1.68427 l -4.30446,-2.08375 -4.30446,-2.08376 -4.02423,-4.57176 -4.02422,-4.57176 -4.54755,-9.28655 -4.54754,-9.28654 -2.01208,-2.55794 -2.01207,-2.55794 -14.67742,-0.0261 -14.67742,-0.0261 -15,-0.92954 -15,-0.92953 -10.10112,-1.523 -10.10113,-1.523 -5.10479,-1.09478 -5.10478,-1.09478 -0.6354,-2.00195 -0.63539,-2.00195 0.55359,-0.55359 0.55359,-0.5536 10.28772,1.63844 10.28771,1.63844 18,1.04539 18,1.04539 14.5,-0.60525 14.5,-0.60525 11,-0.99801 11,-0.99801 2.25,-0.56002 2.25,-0.56003 v -0.81922 -0.81923 l -6.75,-3.21743 -6.75,-3.21744 -21,-0.79921 -21,-0.79922 -7.45241,-0.56007 -7.45242,-0.56007 -9.04758,-1.52921 -9.04759,-1.5292 -12,-2.55282 -12,-2.55283 -1.96111,-1.9025 -1.96111,-1.90251 1.03451,-1.03451 1.0345,-1.0345 7.42661,1.57278 7.4266,1.57279 12.5,1.96121 12.5,1.9612 17.91962,0.65263 17.91962,0.65262 -0.78307,-1.91322 -0.78308,-1.91322 -0.49898,-1.73395 -0.49898,-1.73396 0.63363,-2.52457 0.63362,-2.52456 7.47881,-5.53085 7.47881,-5.53084 v -0.89254 -0.89254 l -2.75,-1.93171 -2.75,-1.93171 -4.5,-1.91683 -4.5,-1.91682 -6.5,0.70805 -6.5,0.70805 -20.5,2.03205 -20.5,2.03205 -31.5,1.49118 -31.5,1.49119 -15.63304,0.49492 -15.63304,0.49492 -1.77944,-1.30116 -1.77944,-1.30115 0.57035,-1.48631 0.57035,-1.4863 17.84213,-0.69117 17.84213,-0.69117 20.5,-1.48187 20.5,-1.48186 16,-1.50497 16,-1.50498 7.97377,-0.98029 7.97376,-0.9803 h 0.92004 0.92003 l -4.51384,-3.44658 -4.51385,-3.44658 -1.63238,-4.07973 -1.63239,-4.07972 1.41777,-3.3932 1.41777,-3.39321 2.33466,-1.31184 2.33466,-1.31185 6.5,-0.56953 6.5,-0.56953 -5.85311,-2.81963 -5.8531,-2.81962 -6.6469,1.82935 -6.64689,1.82935 -5.5,-0.0645 -5.5,-0.0645 -4.69909,-2.23057 -4.6991,-2.23058 -1.13699,-1.36999 -1.137,-1.37 0.59694,-0.96587 0.59694,-0.96587 7.28884,0.55125 7.28885,0.55126 5.9503,-1.6729 5.95031,-1.67289 2.80563,-1.10066 2.80564,-1.10066 -0.83285,-0.83285 -0.83284,-0.83284 -5.64425,-1.94191 -5.64426,-1.94191 -11.82853,3.45089 -11.82854,3.45088 -22,6.34915 -22,6.34914 -22.5,5.53835 -22.5,5.53836 -3.01946,0.60955 -3.01945,0.60956 -1.98055,-1.4615 -1.98054,-1.4615 1.13675,-1.15407 1.13676,-1.15408 15.86324,-3.92489 15.86325,-3.9249 30.73654,-10.23105 30.73655,-10.23105 -4.73655,-2.13316 -4.73654,-2.13316 -2.31126,-2.22017 -2.31126,-2.22017 -0.88058,-2.3161 -0.88059,-2.31611 -5.80815,-1.66727 -5.80816,-1.66728 -6,-3.45908 -6,-3.45908 -8.96883,-6.96392 -8.96882,-6.96393 -8.03118,-4.18453 -8.03117,-4.18454 -7,-2.14286 -7,-2.14285 v -1.26317 -1.26316 l 11.99699,-3.93759 11.99699,-3.93759 3.78867,-2.50723 3.78867,-2.50723 -0.59467,-0.96221 -0.59468,-0.96221 h -3.37589 -3.37588 l -2.60534,-0.99055 -2.60534,-0.99055 1.13837,-2.12708 1.13838,-2.12707 8.71543,0.41669 8.71542,0.41668 3.43644,2.02443 3.43644,2.02442 -0.0394,2.67652 -0.0394,2.67651 h 2.27826 2.27826 l 7.46927,-2.04916 7.46926,-2.04916 11.29189,-1.94421 11.2919,-1.94421 8.09004,-0.007 8.09003,-0.007 7.90997,2.01764 7.90996,2.01763 4.40374,2.73237 4.40373,2.73236 1.9859,2.67551 1.9859,2.67551 0.45872,4.82449 0.45872,4.82449 -2.26626,2.87118 -2.26625,2.87118 -3.29998,1.37882 -3.30002,1.37963 h -3.46702 -3.46702 l -2.8151,-1.06133 -2.8151,-1.06134 -3.23116,-3.11657 -3.23117,-3.11658 -1.11391,-3.3752 -1.11392,-3.37519 0.62192,-2.47792 0.62191,-2.47791 3.02751,-1.84114 3.02751,-1.84113 -1.75879,-0.67491 -1.75879,-0.67491 -7.54555,-0.58099 -7.54556,-0.58099 -8.64836,1.15177 -8.64837,1.15177 -5.22597,1.55195 -5.22597,1.55195 1.12433,1.12433 1.12434,1.12434 v 2.8 2.8 h 2.55718 2.55718 l 4.47202,1.12607 4.47202,1.12607 2.9708,2.77514 2.9708,2.77514 v 3.66453 3.66453 l -1.07952,2.01711 -1.07953,2.01711 -5.17047,2.40738 -5.17048,2.40738 -3.5,0.12809 -3.5,0.12808 -3,0.66386 -3,0.66386 4.56861,2.70655 4.56862,2.70655 3.176,0.6352 3.176,0.6352 3.07884,-3.01014 3.07884,-3.01014 5.53758,-1.74178 5.53758,-1.74178 6.28276,0.50431 6.28275,0.50432 4.06999,2.28747 4.06999,2.28746 1.53622,3.23734 1.53622,3.23735 v 2.09887 2.09887 l -2.05482,2.05482 -2.05482,2.05482 -4.18771,-0.30482 -4.18771,-0.30482 -1.29814,-2.72101 -1.29814,-2.72101 1.51593,-2.93149 1.51594,-2.9315 -1.55705,-0.59749 -1.55705,-0.5975 H 863.56335 860.28 l -2.70954,2.13132 -2.70954,2.13133 -0.92546,2.43415 -0.92547,2.43415 0.97097,1.81427 0.97097,1.81427 4.19574,1.67881 4.19575,1.6788 4.58343,0.0286 4.58343,0.0286 7,-1.65887 7,-1.65886 11,-1.92163 11,-1.92163 10,3.8e-4 10,3.7e-4 8.31257,1.99281 8.31257,1.99281 5.4861,2.68628 5.4861,2.68628 3.62292,3.13176 3.62291,3.13177 -0.7306,1.18214 -0.7306,1.18214 h -2.0966 -2.09659 l -3.09439,-2.28932 -3.09439,-2.28932 -4,-1.67315 -4,-1.67315 -4,-0.94983 -4,-0.94983 -6.5,-0.62334 -6.5,-0.62334 -9.93779,1.04766 -9.93779,1.04767 -4.05784,1.09266 -4.05784,1.09266 7.30022,3.46807 7.30021,3.46806 1.13969,2.50134 1.13969,2.50135 -1.15646,1.85179 -1.15646,1.85178 5.39203,3.04308 5.39204,3.04308 3.64845,3.20338 3.64844,3.20338 9.42171,12.38685 9.4217,12.38686 v 0.86748 0.86748 l -1.716,0.33047 -1.716,0.33047 5.22448,3.35254 5.22447,3.35254 0.63878,2.54509 0.63878,2.54509 -0.97689,1.54869 -0.97688,1.54868 4.93741,3.7099 4.93741,3.7099 2.37001,3.33664 2.37001,3.33664 0.62101,3.119 0.62101,3.119 -2.27603,2.12044 -2.27602,2.12044 0.42722,0.36427 0.42723,0.36427 5.62494,3.55387 5.62495,3.55387 2.12505,2.28098 2.12506,2.28098 v 1.82614 1.82614 l -2.99589,1.82191 -2.9959,1.82191 5.58436,3.8461 5.58436,3.84609 2.53509,3.32368 2.53509,3.32367 0.49017,4.34872 0.49016,4.34872 -2.3082,2.15042 -2.30821,2.15041 0.94449,0.81655 0.94448,0.81655 4.37808,3.36341 4.37809,3.36341 2.87195,3.96456 2.8719,3.96457 v 2.43682 2.43683 l -3,1.13237 -3.00002,1.13238 v 0.59367 0.59367 l 3.13582,2.93709 3.1358,2.93709 3.8642,5.90504 3.8642,5.90503 v 3.39042 3.39042 l -2.3068,2.30682 -2.3068,2.30682 -1.3819,0.46061 -1.3818,0.46062 3.7799,4.93711 3.78,4.93711 4.3768,9 4.3767,9 1.2063,5.26154 1.2064,5.26153 5.5756,4.16665 5.5756,4.16665 8.39,8.07182 8.3899,8.07181 5.9365,7.93972 5.9365,7.93973 2.011,3.94176 2.0109,3.94176 1.4018,4.61851 1.4018,4.61852 10e-4,3.5 v 3.5 l -2.3813,5.11421 -2.3814,5.1142 -3.2581,1.1358 -3.2581,1.13579 -1.1008,-0.022 -1.1008,-0.022 z m -72.82441,-179.97268 1.53098,-0.85678 -3.07638,-3.50379 -3.07637,-3.5038 -5.79189,-2.59924 -5.79188,-2.59925 -4.40696,-0.7047 -4.40696,-0.7047 3.12678,3.9053 3.12678,3.9053 1.53021,3.68214 1.53021,3.68213 2.76493,0.46722 2.76494,0.46723 4.32232,-0.39014 4.32232,-0.39014 z m -30.37673,-43.07015 4.79889,-0.78928 1.12399,-1.12399 1.12399,-1.12399 -1.13288,-2.4864 -1.13288,-2.48639 -3.84461,-1.96138 -3.84461,-1.96137 -4.94538,3.0208 -4.94539,3.02081 -1.24196,1.57998 -1.24197,1.57998 1.64695,1.81986 1.64696,1.81986 3.59501,-0.0596 3.59501,-0.0596 z m -23.45839,-39.91563 4.34049,-0.67588 -4.34049,-5.73395 -4.34049,-5.73394 -3.5,-1.01048 -3.5,-1.01048 -4.07569,-0.006 -4.07568,-0.006 -2.25999,2.40565 -2.26,2.40565 1.12076,2.09416 1.12076,2.09415 5.21492,2.99081 5.21492,2.99081 3.5,-0.0647 3.5,-0.0647 z m -91.00114,-81.36285 4.66065,-2.31303 0.29995,-1.62862 0.29995,-1.62862 -1.5619,-1.5619 -1.56189,-1.5619 -4.43533,-0.66512 -4.43533,-0.66511 -2.80273,1.99274 -2.80272,1.99274 -4.5,1.29323 -4.5,1.29323 -0.34547,0.24846 -0.34546,0.24847 3.34546,3.11473 3.34547,3.11474 5.33935,-0.4805 5.33935,-0.48051 z m -21.76866,-11.56303 5.42931,-2.75 0.35874,-1.9339 0.35874,-1.93391 -1.79987,-1.31609 -1.79987,-1.3161 -4.05887,0.0148 -4.05887,0.0148 -6.00252,1.41588 -6.00252,1.41588 -2.90447,1.10428 -2.90447,1.10427 6.90699,3.39037 6.90699,3.39038 2.07069,0.0747 2.07068,0.0747 z m -657.42343,317.57438 -2.85274,-2.14088 -4.24034,0.16039 -4.24033,0.16039 -1.73188,-1.91371 -1.73188,-1.9137 0.32495,-2.83844 0.32496,-2.83843 3.5,-0.53366 3.5,-0.53365 -3.13088,-1.68043 -3.13089,-1.68043 -2.61911,-3.11264 -2.61912,-3.11264 v -2.31629 -2.31628 l 1.57244,-0.60341 1.57244,-0.6034 1.92756,1.0316 1.92756,1.0316 v -1.97848 -1.97848 l 2.15461,-1.50915 2.1546,-1.50914 1.84675,0.98834 1.84674,0.98835 2.43662,4.80844 2.43662,4.80844 2.56203,1.67871 2.56203,1.67871 v 2.47694 2.47695 h -1.38342 -1.38343 l -0.52166,2.72892 -0.52167,2.72892 1.9773,2.77686 1.9773,2.77686 -0.33369,1.73274 -0.3337,1.73273 -1.48851,0.24412 -1.48852,0.24411 z m 878.42956,-70.37392 -4.0821,-3.68795 -3.7346,-1.28392 -3.7347,-1.28392 -0.9219,-1.46141 -0.9218,-1.46141 0.8028,-1.88593 0.8029,-1.88592 0.1063,-2 0.1063,-2 -3,-2.03983 -3,-2.03984 v -1.96016 -1.96017 l 5.2409,0.27905 5.2408,0.27904 2.5501,-1.67089 2.5501,-1.6709 2.4738,1.12712 2.4738,1.12712 1.2013,2.6366 1.2013,2.6366 -2.8028,2.23483 -2.8027,2.23483 4.2501,0.57006 4.2501,0.57007 2.5866,1.93115 2.5866,1.93116 v 2.89208 2.89208 l -2.725,-0.0375 -2.725,-0.0375 0.225,2.88364 0.225,2.88364 -2.1705,1.47304 -2.1705,1.47304 z m -857.68685,-35.93875 -3.11003,-3.51171 h -3.01752 -3.01753 l -1.04205,-1.25559 -1.04205,-1.2556 -0.65272,-2.60065 -0.65273,-2.60065 1.71609,-1.71608 1.71608,-1.71609 2.60625,0.64869 2.60624,0.64868 -2.69695,-2.82635 -2.69695,-2.82636 -1.57601,-3.77284 -1.57601,-3.77283 1.10858,-2.07141 1.10858,-2.0714 1.66438,0.48079 1.66438,0.48078 1.50696,0.62718 1.50696,0.62718 0.99304,-2.25788 0.99304,-2.25789 1.62862,-0.30579 1.62862,-0.30579 1.62091,1.62091 1.62091,1.62091 0.63848,3.99287 0.63849,3.99287 2.36198,3.48058 2.36199,3.48058 v 1.8882 1.8882 l -1.75248,0.55622 -1.75247,0.55621 -1.27038,2.03421 -1.27038,2.0342 1.0845,2.02643 1.08451,2.02642 -0.31165,2.69199 -0.31165,2.692 -1.5,0.27026 -1.5,0.27026 z m 827.37705,-19.41145 -3.41885,-3.00174 -1.59405,-3.79926 -1.59406,-3.79926 -2.59738,-8.1621 -2.59738,-8.1621 -2.09162,-4.72846 -2.09163,-4.72847 -3.8694,-4.19781 -3.86941,-4.19781 -4.05006,-1.82632 -4.05005,-1.82632 0.35555,-1.08531 0.35556,-1.0853 2.59954,-0.30935 2.59955,-0.30934 5.10277,2.19515 5.10276,2.19515 4.28747,4.76869 4.28746,4.7687 2.37895,5.01074 2.37898,5.01075 2.5541,0.51256 2.5542,0.51257 4.5,1.16868 4.5,1.16869 3.5356,0.8794 3.5355,0.8794 2.2145,2.06306 2.2144,2.06306 v 2.46105 2.46104 h -2.9772 -2.9771 l -6.2729,-2.39818 -6.2728,-2.39818 -1.75,-0.70881 -1.75,-0.70881 v 1.94727 1.94727 l 3.022,6.0475 3.0219,6.0475 3.0243,1.25271 3.0243,1.2527 -0.3052,1.60952 -0.3053,1.60951 -4.6481,0.301 -4.6481,0.301 z m -76.41259,-133.77607 -2.14557,-0.43592 -1.7808,-1.96776 -1.7808,-1.96777 1.1781,-1.1781 1.17811,-1.17811 11.32658,-0.31671 11.32659,-0.31671 1.75933,1.94404 1.75934,1.94404 -0.34938,1.82441 -0.34938,1.8244 -9.98828,0.13006 -9.98827,0.13005 z m -381.38577,-3.86195 -1.10488,-1.3313 12.31811,-12.87376 12.31811,-12.87377 11.56485,-12.4417 11.56485,-12.44171 6.84572,-8 6.84572,-8 4.70695,-5.5 4.70695,-5.5 14.89402,-17.5 14.89402,-17.5 2.25247,-2.90266 2.25246,-2.90266 -0.3897,-0.38971 -0.3897,-0.3897 -5.37431,2.38835 -5.3743,2.38835 -20.73638,23.01806 -20.73639,23.01806 -10.26361,9.46639 -10.26362,9.46639 -11.85993,10.16956 -11.85993,10.16957 h -2.33105 -2.33106 l -0.53185,-0.86056 -0.53186,-0.86057 15.71379,-14.88943 15.7138,-14.88944 9.52812,-9.5 9.52812,-9.5 6.73092,-8.6437 6.73093,-8.64371 v -0.40549 -0.4055 l -3.52244,0.41123 -3.52244,0.41122 -3.01739,-1.24984 -3.01738,-1.24984 -1.38065,-1.97115 -1.38064,-1.97114 -7.21389,3.60896 -7.21388,3.60896 h -3.9111 -3.9111 l -2.45454,-2.45455 -2.45455,-2.45454 v -3.59512 -3.59511 l 1.58482,-3.0647 1.58482,-3.0647 4.04254,-4.38564 4.04254,-4.38564 h -1.97081 -1.97081 l -5.61032,1.93023 -5.61032,1.93024 -8.66023,4.05832 -8.66024,4.05832 -0.886,-0.54757 -0.88599,-0.54757 v -1.2355 -1.2355 l 4.75,-3.60512 4.75,-3.60512 4,-2.04912 4,-2.04913 4.72784,-2.0062 4.72784,-2.00621 7.48,-1.54503 7.48,-1.54504 h 12.18107 12.18106 l 12.00397,2.04808 12.00396,2.04807 2.68171,-0.589 2.68171,-0.589 5.42542,-5.54928 5.42542,-5.54928 5.67598,-4.41129 5.67599,-4.41129 7.32401,-3.91391 7.32402,-3.91391 8.82968,-3.08459 8.82968,-3.0846 h 6.48606 6.48606 l 1.93426,1.03518 1.93426,1.03519 v 1.39743 1.39742 l -2.25,0.75829 -2.25,0.75828 -7.5,0.0801 -7.5,0.0801 -6.18368,3.08194 -6.18368,3.08194 -7.81632,5.64777 -7.81632,5.64777 -6.93342,6.30836 -6.93343,6.30837 6.85373,-0.43642 6.85373,-0.43641 1.26101,1.72454 1.26101,1.72454 -0.5383,1.4028 -0.53831,1.4028 h 1.02622 1.02623 l 6.11442,-1.56644 6.11443,-1.56645 3.53316,1.16605 3.53316,1.16605 0.99314,2.1797 0.99314,2.17969 6.93366,-0.39179 6.93367,-0.39178 3.33117,0.62493 3.33117,0.62493 2.27401,2.11856 2.274,2.11855 -0.5738,2.869 -0.5738,2.86901 h 0.33851 0.33851 l 4.94132,-0.9371 4.94132,-0.9371 9.69977,-6.62316 9.69976,-6.62316 7.74541,-3.85364 7.7454,-3.85365 4.5,-1.26597 4.5,-1.26597 10.5,-0.0622 10.5,-0.0622 3.13088,1.70619 3.13089,1.7062 2.61911,3.11264 2.61912,3.11264 v 4.78842 4.78841 l -2.1679,2.75604 -2.1679,2.75604 -3.29998,1.37882 -3.29998,1.37875 h -4.79772 -4.79772 l -3.40714,-1.82727 -3.40713,-1.82726 -1.87249,-3.42274 -1.8725,-3.42273 0.55711,-2.93438 0.5571,-2.93439 1.64311,-1.81561 1.64312,-1.81562 h -2.65101 -2.65101 l -6.25398,2.13956 -6.25398,2.13955 -5.96301,2.98237 -5.963,2.98236 -3.89461,2.45856 -3.8946,2.45855 2.11171,1.4791 2.11171,1.4791 -0.58384,2.32622 -0.58385,2.32621 4.68143,-0.87458 4.68143,-0.87459 4.31607,1.0868 4.31608,1.0868 2.18224,2.32289 2.18224,2.32289 v 3.43539 3.43538 l -1.51468,2.89372 -1.51468,2.89372 -3.33532,3.1422 -3.33532,3.1422 -4.00562,2.00345 -4.00563,2.00345 -4.1821,1.12613 -4.1821,1.12612 -4.26852,-0.68256 -4.26851,-0.68257 -2.29376,-2.29375 -2.29376,-2.29376 v -2.5932 -2.59321 l 2.64602,-2.45225 2.64603,-2.45225 h 2.13147 2.13147 l 2.2225,1.5567 2.22251,1.55671 v 3.00728 3.00728 l 3.76718,-2.11727 3.76717,-2.11727 2.30696,-3.36679 2.30696,-3.36679 -0.32414,-2.82992 -0.32413,-2.82993 -2.3734,-0.33572 -2.3734,-0.33572 -6.96679,2.24012 -6.96679,2.24012 -4.05772,3.39013 -4.05771,3.39012 -4.293,2.51586 -4.29299,2.51586 -4.23138,-0.31038 -4.23138,-0.31039 -0.31824,-1 -0.31824,-1 6.00561,-3.86986 6.00562,-3.86986 4.51261,-5.0191 4.5126,-5.01911 -0.5703,-0.5703 -0.5703,-0.5703 -4.2074,0.28289 -4.2074,0.28289 -4.5,0.97708 -4.5,0.97709 -3.75,2.58529 -3.75,2.58529 v 0.96664 0.96664 l 6.6615,-0.35264 6.66151,-0.35264 0.42177,1.24984 0.42178,1.24984 -4.83328,2.10135 -4.83328,2.10134 -8,0.51079 -8,0.51078 -15,-3.55128 -15,-3.55128 -4.5,-0.60414 -4.5,-0.60415 -4.19737,1.29346 -4.19738,1.29345 -20.15353,22.5 -20.15353,22.5 -24.06939,24.1779 -24.06938,24.1779 -1.79294,0.46887 -1.79294,0.46886 z m 148.79852,-103.03979 5.23282,-4.57754 v -2.35507 -2.35506 l -1.88498,-0.59827 -1.88498,-0.59827 -4.33605,0.97424 -4.33604,0.97425 -1.74735,2.39871 -1.74734,2.39872 -4.18786,2.90219 -4.18786,2.90219 3.90623,1.17888 3.90623,1.17888 3.01718,0.0768 3.01717,0.0769 z m -22.32299,-4.81965 4.72185,-4.3972 -0.33302,-2.3528 -0.33302,-2.3528 -3.40597,-0.32499 -3.40597,-0.32499 -7.14236,3.52995 -7.14237,3.52994 -3.22591,3.54505 -3.22592,3.54504 h 9.38541 9.38542 z m -82.68686,-2.16916 5.15002,-2.56637 0.55453,-1.74718 0.55454,-1.74718 3.35202,-3.65956 3.35202,-3.65955 -0.52689,-0.5269 -0.5269,-0.5269 h -5.65334 -5.65333 l -4.20622,3.60037 -4.20623,3.60037 -1.42235,2.75053 -1.42236,2.75054 1.50528,2.1491 1.50529,2.14909 h 1.24695 1.24695 z m 28.32366,-0.69651 4.58099,-2.23713 4.16901,-4.61183 4.16901,-4.61183 v -0.63817 -0.63817 h -7.99712 -7.99712 l -4.01601,3.62822 -4.01601,3.62823 -0.59854,2.38476 -0.59853,2.38476 1.23411,1.48702 1.23411,1.48701 2.62755,-0.0129 2.62756,-0.0129 z m -324.39063,89.51287 -0.42768,-0.75 -0.6689,-3.70865 -0.66889,-3.70865 -2.9033,-2.06733 -2.90331,-2.06733 -0.64207,-2.02299 -0.64207,-2.02298 1.60598,-2.45103 1.60599,-2.45104 h 1.6482 1.64821 l 1.98573,1.75 1.98573,1.75 -0.72077,-2.5 -0.72078,-2.5 -0.56406,-4.23041 -0.56406,-4.23041 1.6509,-2.51959 1.6509,-2.51959 h 1.49838 1.49839 l 1.089,2.3901 1.08901,2.39011 2.78567,-1.59876 2.78568,-1.59876 1.71019,1.41933 1.71018,1.41932 -0.73624,4.53933 -0.73625,4.53933 -0.21358,5 -0.21358,5 -0.15648,1.25 -0.15648,1.25 h -2.56574 -2.56574 l -1.93426,1.03518 -1.93426,1.03519 v 3.26481 3.26482 l -1.2,1.2 -1.2,1.2 h -1.24098 -1.24099 z m 600.9509,-6.46645 -1.85874,-1.41574 0.3686,-1.93391 0.3686,-1.9339 5.49014,-0.6676 5.49014,-0.66761 4.73343,-0.71058 4.73343,-0.71058 2.94471,1.21974 2.94472,1.21974 0.6086,1.58599 0.6086,1.58598 -1.38391,1.38391 -1.38391,1.38391 -10.90283,0.53819 -10.90284,0.5382 z m -145.87722,-5.77926 -2.73595,-0.82381 -3.60966,-2.23089 -3.60966,-2.2309 -2.90439,-4.00938 -2.90438,-4.00939 0.004,-4.09996 0.004,-4.09996 1.96317,-3.21976 1.96317,-3.21975 4.21608,-3.05411 4.21607,-3.05411 4.69614,-1.66792 4.69613,-1.66792 -0.50396,-3.75733 -0.50397,-3.75733 2.6178,-4.46693 2.6178,-4.46693 4.25704,-3.65717 4.25705,-3.65717 7,-3.34563 7,-3.34562 8.5,-2.5174 8.5,-2.51739 10.11933,-1.56377 10.11933,-1.56376 h 10.56557 10.56557 l 2.5651,0.97525 2.5651,0.97525 v 1.55613 1.55614 l -1.25,0.46532 -1.25,0.46531 -15.5,0.35656 -15.5,0.35656 -10,2.63163 -10,2.63163 -8.16444,4.02115 -8.16444,4.02115 -4.41611,4.29197 -4.4161,4.29196 -0.59019,2.25688 -0.59019,2.25689 2.67074,1.08274 2.67073,1.08275 7.5,0.1928 7.5,0.19281 0.3212,1.65856 0.32121,1.65855 -2.32121,0.90847 -2.3212,0.90848 -10,1.00276 -10,1.00277 -5.93743,2.24174 -5.93743,2.24174 -2.31257,2.31257 -2.31309,2.31257 v 3.82295 3.82295 l 1.71924,2.4725 1.71925,2.47251 2.03075,1.73589 2.03076,1.7359 3.75295,1.17327 3.75295,1.17328 2.49705,-1.13773 2.49705,-1.13773 v -3.46242 -3.46243 l -1,-0.61803 -1,-0.61803 v 2.03596 2.03596 l -2.49271,1.63329 -2.49272,1.63329 -2.54129,-0.63782 -2.5413,-0.63783 -1.0929,-2.39867 -1.09291,-2.39867 0.6293,-2.50734 0.62931,-2.50735 3.0662,-2.18333 3.06621,-2.18333 3.87867,0.0535 3.87867,0.0535 2.10624,1.12722 2.10625,1.12723 1.94275,3.18618 1.94275,3.18618 0.004,3.40484 0.004,3.40483 -3.88754,3.69813 -3.88755,3.69814 -4.55527,1.14703 -4.55528,1.14703 -2.80718,-0.086 -2.80718,-0.086 z m -414.09737,-22.67096 -0.66667,-0.66666 v -3.53573 -3.53573 l -3.19387,-3.29524 -3.19388,-3.29524 0.94388,-2.63771 0.94387,-2.63772 2.20958,-1.45979 2.20958,-1.45978 2.61681,2.82358 2.61681,2.82358 -0.82639,-2.97844 -0.82639,-2.97845 0.0242,-4.1717 0.0241,-4.17169 1.88084,-2.07831 1.88084,-2.0783 h 1.36645 1.36645 l 1.12049,2.45922 1.1205,2.45922 1.79232,-0.95922 1.79233,-0.95922 h 1.58718 1.58718 l 1.08137,2.37336 1.08138,2.37336 -2.10282,4.75376 -2.10281,4.75376 v 4.26589 4.26589 l -1.59024,0.61024 -1.59024,0.61023 -0.83483,-0.51595 -0.83482,-0.51595 -2.57493,1.17322 -2.57494,1.17322 v 1.29243 1.29243 l -1.16052,2.54706 -1.16051,2.54705 h -1.67282 -1.67282 z m 143.89003,-27.55584 -1.5567,-2.2225 v -1.7775 -1.77749 l 2.05896,-2.05896 2.05896,-2.05896 3.18409,0.30896 3.18408,0.30896 1.30236,2.73089 1.30237,2.7309 -1.19512,2.2691 -1.19511,2.26911 -1.10029,0.73469 -1.1003,0.73468 -2.6933,0.0153 -2.69329,0.0153 z m 115.86038,-59.13298 -0.52015,-1.3555 2.10974,-3.57575 2.10975,-3.57576 -0.677,-3.60874 -0.67701,-3.60875 1.77378,-1.96 1.77379,-1.96001 h 2.73802 2.73802 l 0.60699,1.58179 0.60699,1.58178 0.0466,2.16822 0.0466,2.16821 2.42392,-4.6542 2.42392,-4.6542 2.72091,-2.14027 2.72092,-2.14027 2.0586,0.29468 2.05861,0.29468 -0.20915,3.65531 -0.20916,3.65531 1.70916,-0.28085 1.70915,-0.28084 1.75,1.53031 1.75,1.53032 v 1.26895 1.26895 l -3.12573,2.32606 -3.12573,2.32606 -4.92964,4.75 -4.92964,4.75 h -0.3732 -0.3732 l -1.69462,-1.69461 -1.69461,-1.69461 -2.12681,-0.17221 -2.12682,-0.17221 -2.65437,1.86682 -2.65445,1.86682 h -1.62702 -1.62701 z"
       id="path1" />
  </g>
</svg>
